<svg width="605" height="71" viewBox="0 0 605 71" fill="none" xmlns="http://www.w3.org/2000/svg">
<path d="M187.233 24V13.8182H188.466V22.9062H193.199V24H187.233ZM198.051 24.1591C197.362 24.1591 196.757 23.995 196.237 23.6669C195.719 23.3388 195.315 22.8797 195.023 22.2898C194.735 21.6998 194.591 21.0104 194.591 20.2216C194.591 19.4261 194.735 18.7318 195.023 18.1385C195.315 17.5452 195.719 17.0845 196.237 16.7564C196.757 16.4283 197.362 16.2642 198.051 16.2642C198.741 16.2642 199.344 16.4283 199.861 16.7564C200.381 17.0845 200.786 17.5452 201.074 18.1385C201.366 18.7318 201.511 19.4261 201.511 20.2216C201.511 21.0104 201.366 21.6998 201.074 22.2898C200.786 22.8797 200.381 23.3388 199.861 23.6669C199.344 23.995 198.741 24.1591 198.051 24.1591ZM198.051 23.1051C198.575 23.1051 199.006 22.9709 199.344 22.7024C199.682 22.4339 199.932 22.081 200.094 21.6435C200.257 21.206 200.338 20.732 200.338 20.2216C200.338 19.7112 200.257 19.2356 200.094 18.7947C199.932 18.3539 199.682 17.9976 199.344 17.7259C199.006 17.4541 198.575 17.3182 198.051 17.3182C197.527 17.3182 197.097 17.4541 196.759 17.7259C196.42 17.9976 196.17 18.3539 196.008 18.7947C195.845 19.2356 195.764 19.7112 195.764 20.2216C195.764 20.732 195.845 21.206 196.008 21.6435C196.17 22.081 196.42 22.4339 196.759 22.7024C197.097 22.9709 197.527 23.1051 198.051 23.1051ZM203.302 24V16.3636H204.436V17.517H204.515C204.655 17.1392 204.907 16.8326 205.271 16.5973C205.636 16.362 206.047 16.2443 206.504 16.2443C206.59 16.2443 206.698 16.246 206.827 16.2493C206.956 16.2526 207.054 16.2576 207.121 16.2642V17.4574C207.081 17.4474 206.99 17.4325 206.847 17.4126C206.708 17.3894 206.56 17.3778 206.405 17.3778C206.033 17.3778 205.702 17.4557 205.41 17.6115C205.122 17.764 204.893 17.9761 204.724 18.2479C204.559 18.5163 204.476 18.8229 204.476 19.1676V24H203.302ZM211.481 24.1591C210.745 24.1591 210.11 23.9967 209.577 23.6719C209.046 23.3438 208.637 22.8864 208.349 22.2997C208.064 21.7098 207.921 21.0237 207.921 20.2415C207.921 19.4593 208.064 18.7699 208.349 18.1733C208.637 17.5734 209.038 17.1061 209.552 16.7713C210.069 16.4332 210.672 16.2642 211.361 16.2642C211.759 16.2642 212.152 16.3305 212.54 16.4631C212.927 16.5956 213.28 16.8111 213.599 17.1094C213.917 17.4044 214.17 17.7955 214.359 18.2827C214.548 18.7699 214.643 19.3698 214.643 20.0824V20.5795H208.756V19.5653H213.449C213.449 19.1345 213.363 18.75 213.191 18.4119C213.022 18.0739 212.78 17.8071 212.465 17.6115C212.153 17.416 211.786 17.3182 211.361 17.3182C210.894 17.3182 210.49 17.4342 210.148 17.6662C209.81 17.8949 209.55 18.1932 209.368 18.5611C209.185 18.929 209.094 19.3234 209.094 19.7443V20.4205C209.094 20.9972 209.194 21.486 209.393 21.8871C209.595 22.2848 209.875 22.5881 210.233 22.7969C210.591 23.0024 211.007 23.1051 211.481 23.1051C211.789 23.1051 212.067 23.062 212.316 22.9759C212.568 22.8864 212.785 22.7538 212.967 22.5781C213.149 22.3991 213.29 22.1771 213.39 21.9119L214.523 22.2301C214.404 22.6146 214.203 22.9527 213.922 23.2443C213.64 23.5327 213.292 23.758 212.878 23.9205C212.463 24.0795 211.998 24.1591 211.481 24.1591ZM216.427 24V16.3636H217.561V17.5568H217.66C217.819 17.1491 218.076 16.8326 218.431 16.6072C218.786 16.3786 219.211 16.2642 219.709 16.2642C220.212 16.2642 220.632 16.3786 220.966 16.6072C221.305 16.8326 221.568 17.1491 221.757 17.5568H221.836C222.032 17.1624 222.325 16.8492 222.716 16.6172C223.108 16.3819 223.577 16.2642 224.123 16.2642C224.806 16.2642 225.365 16.478 225.799 16.9055C226.233 17.3298 226.45 17.991 226.45 18.8892V24H225.277V18.8892C225.277 18.3258 225.123 17.9231 224.814 17.6811C224.506 17.4392 224.143 17.3182 223.726 17.3182C223.189 17.3182 222.773 17.4806 222.478 17.8054C222.183 18.1269 222.035 18.5346 222.035 19.0284V24H220.842V18.7699C220.842 18.3357 220.701 17.986 220.42 17.7209C220.138 17.4524 219.775 17.3182 219.331 17.3182C219.026 17.3182 218.741 17.3994 218.476 17.5618C218.214 17.7242 218.002 17.9496 217.839 18.2379C217.68 18.523 217.601 18.8527 217.601 19.2273V24H216.427ZM235.42 24V16.3636H236.593V24H235.42ZM236.016 15.0909C235.787 15.0909 235.59 15.013 235.425 14.8572C235.262 14.7015 235.181 14.5142 235.181 14.2955C235.181 14.0767 235.262 13.8894 235.425 13.7337C235.59 13.5779 235.787 13.5 236.016 13.5C236.245 13.5 236.44 13.5779 236.603 13.7337C236.769 13.8894 236.851 14.0767 236.851 14.2955C236.851 14.5142 236.769 14.7015 236.603 14.8572C236.44 15.013 236.245 15.0909 236.016 15.0909ZM238.742 26.8636V16.3636H239.875V17.5767H240.015C240.101 17.4441 240.22 17.2751 240.373 17.0696C240.528 16.8608 240.75 16.6752 241.039 16.5128C241.33 16.3471 241.725 16.2642 242.222 16.2642C242.865 16.2642 243.432 16.425 243.922 16.7464C244.413 17.0679 244.796 17.5237 245.071 18.1136C245.346 18.7036 245.483 19.3996 245.483 20.2017C245.483 21.0104 245.346 21.7114 245.071 22.3047C244.796 22.8946 244.414 23.352 243.927 23.6768C243.44 23.9983 242.878 24.1591 242.242 24.1591C241.751 24.1591 241.359 24.0779 241.064 23.9155C240.769 23.7498 240.542 23.5625 240.382 23.3537C240.223 23.1416 240.101 22.9659 240.015 22.8267H239.915V26.8636H238.742ZM239.895 20.1818C239.895 20.7585 239.98 21.2673 240.149 21.7081C240.318 22.1456 240.565 22.4886 240.89 22.7372C241.214 22.9825 241.612 23.1051 242.083 23.1051C242.573 23.1051 242.983 22.9759 243.311 22.7173C243.642 22.4555 243.891 22.1042 244.056 21.6634C244.225 21.2192 244.31 20.7254 244.31 20.1818C244.31 19.6449 244.227 19.161 244.061 18.7301C243.899 18.2959 243.652 17.9529 243.321 17.701C242.993 17.4458 242.58 17.3182 242.083 17.3182C241.605 17.3182 241.204 17.4392 240.88 17.6811C240.555 17.9197 240.31 18.2545 240.144 18.6854C239.978 19.1129 239.895 19.6117 239.895 20.1818ZM252.682 18.0739L251.628 18.3722C251.562 18.1965 251.464 18.0258 251.335 17.8601C251.209 17.6911 251.037 17.5518 250.818 17.4425C250.599 17.3331 250.319 17.2784 249.978 17.2784C249.51 17.2784 249.121 17.3861 248.809 17.6016C248.501 17.8137 248.347 18.0838 248.347 18.4119C248.347 18.7036 248.453 18.9339 248.665 19.103C248.877 19.272 249.209 19.4129 249.659 19.5256L250.793 19.804C251.476 19.9697 251.984 20.2232 252.319 20.5646C252.654 20.9027 252.821 21.3385 252.821 21.8722C252.821 22.3097 252.695 22.7008 252.444 23.0455C252.195 23.3902 251.847 23.6619 251.4 23.8608C250.952 24.0597 250.432 24.1591 249.838 24.1591C249.06 24.1591 248.415 23.9901 247.904 23.652C247.394 23.3139 247.071 22.8201 246.935 22.1705L248.049 21.892C248.155 22.303 248.355 22.6113 248.65 22.8168C248.949 23.0223 249.338 23.125 249.819 23.125C250.365 23.125 250.8 23.009 251.121 22.777C251.446 22.5417 251.608 22.2599 251.608 21.9318C251.608 21.6667 251.516 21.4446 251.33 21.2656C251.144 21.0833 250.859 20.9474 250.475 20.858L249.202 20.5597C248.503 20.3939 247.989 20.1371 247.661 19.7891C247.336 19.4377 247.174 18.9986 247.174 18.4716C247.174 18.0407 247.295 17.6596 247.537 17.3281C247.782 16.9967 248.115 16.7365 248.536 16.5476C248.96 16.3587 249.441 16.2642 249.978 16.2642C250.733 16.2642 251.327 16.4299 251.757 16.7614C252.192 17.0928 252.5 17.5303 252.682 18.0739ZM259.4 20.8778V16.3636H260.573V24H259.4V22.7074H259.32C259.142 23.0952 258.863 23.425 258.485 23.6967C258.107 23.9652 257.63 24.0994 257.053 24.0994C256.576 24.0994 256.152 23.995 255.781 23.7862C255.41 23.5741 255.118 23.2559 254.906 22.8317C254.694 22.4041 254.588 21.8655 254.588 21.2159V16.3636H255.761V21.1364C255.761 21.6932 255.917 22.1373 256.228 22.4688C256.543 22.8002 256.944 22.9659 257.431 22.9659C257.723 22.9659 258.02 22.8913 258.321 22.7422C258.626 22.593 258.881 22.3643 259.087 22.0561C259.296 21.7479 259.4 21.3551 259.4 20.8778ZM262.722 24V16.3636H263.856V17.5568H263.955C264.114 17.1491 264.371 16.8326 264.726 16.6072C265.08 16.3786 265.506 16.2642 266.004 16.2642C266.507 16.2642 266.927 16.3786 267.261 16.6072C267.599 16.8326 267.863 17.1491 268.052 17.5568H268.131C268.327 17.1624 268.62 16.8492 269.011 16.6172C269.402 16.3819 269.871 16.2642 270.418 16.2642C271.101 16.2642 271.66 16.478 272.094 16.9055C272.528 17.3298 272.745 17.991 272.745 18.8892V24H271.572V18.8892C271.572 18.3258 271.418 17.9231 271.109 17.6811C270.801 17.4392 270.438 17.3182 270.021 17.3182C269.484 17.3182 269.068 17.4806 268.773 17.8054C268.478 18.1269 268.33 18.5346 268.33 19.0284V24H267.137V18.7699C267.137 18.3357 266.996 17.986 266.714 17.7209C266.433 17.4524 266.07 17.3182 265.626 17.3182C265.321 17.3182 265.036 17.3994 264.771 17.5618C264.509 17.7242 264.297 17.9496 264.134 18.2379C263.975 18.523 263.896 18.8527 263.896 19.2273V24H262.722ZM284.598 24.1591C283.962 24.1591 283.4 23.9983 282.913 23.6768C282.425 23.352 282.044 22.8946 281.769 22.3047C281.494 21.7114 281.357 21.0104 281.357 20.2017C281.357 19.3996 281.494 18.7036 281.769 18.1136C282.044 17.5237 282.427 17.0679 282.918 16.7464C283.408 16.425 283.975 16.2642 284.618 16.2642C285.115 16.2642 285.508 16.3471 285.796 16.5128C286.088 16.6752 286.31 16.8608 286.462 17.0696C286.618 17.2751 286.739 17.4441 286.825 17.5767H286.925V13.8182H288.098V24H286.964V22.8267H286.825C286.739 22.9659 286.616 23.1416 286.457 23.3537C286.298 23.5625 286.071 23.7498 285.776 23.9155C285.481 24.0779 285.089 24.1591 284.598 24.1591ZM284.757 23.1051C285.228 23.1051 285.625 22.9825 285.95 22.7372C286.275 22.4886 286.522 22.1456 286.691 21.7081C286.86 21.2673 286.945 20.7585 286.945 20.1818C286.945 19.6117 286.862 19.1129 286.696 18.6854C286.53 18.2545 286.285 17.9197 285.96 17.6811C285.635 17.4392 285.234 17.3182 284.757 17.3182C284.26 17.3182 283.846 17.4458 283.514 17.701C283.186 17.9529 282.939 18.2959 282.773 18.7301C282.611 19.161 282.53 19.6449 282.53 20.1818C282.53 20.7254 282.613 21.2192 282.778 21.6634C282.947 22.1042 283.196 22.4555 283.524 22.7173C283.856 22.9759 284.267 23.1051 284.757 23.1051ZM293.512 24.1591C292.823 24.1591 292.218 23.995 291.697 23.6669C291.18 23.3388 290.776 22.8797 290.484 22.2898C290.196 21.6998 290.052 21.0104 290.052 20.2216C290.052 19.4261 290.196 18.7318 290.484 18.1385C290.776 17.5452 291.18 17.0845 291.697 16.7564C292.218 16.4283 292.823 16.2642 293.512 16.2642C294.201 16.2642 294.805 16.4283 295.322 16.7564C295.842 17.0845 296.246 17.5452 296.535 18.1385C296.826 18.7318 296.972 19.4261 296.972 20.2216C296.972 21.0104 296.826 21.6998 296.535 22.2898C296.246 22.8797 295.842 23.3388 295.322 23.6669C294.805 23.995 294.201 24.1591 293.512 24.1591ZM293.512 23.1051C294.036 23.1051 294.467 22.9709 294.805 22.7024C295.143 22.4339 295.393 22.081 295.555 21.6435C295.718 21.206 295.799 20.732 295.799 20.2216C295.799 19.7112 295.718 19.2356 295.555 18.7947C295.393 18.3539 295.143 17.9976 294.805 17.7259C294.467 17.4541 294.036 17.3182 293.512 17.3182C292.988 17.3182 292.558 17.4541 292.219 17.7259C291.881 17.9976 291.631 18.3539 291.469 18.7947C291.306 19.2356 291.225 19.7112 291.225 20.2216C291.225 20.732 291.306 21.206 291.469 21.6435C291.631 22.081 291.881 22.4339 292.219 22.7024C292.558 22.9709 292.988 23.1051 293.512 23.1051ZM299.937 13.8182V24H298.763V13.8182H299.937ZM305.188 24.1591C304.498 24.1591 303.894 23.995 303.373 23.6669C302.856 23.3388 302.452 22.8797 302.16 22.2898C301.872 21.6998 301.728 21.0104 301.728 20.2216C301.728 19.4261 301.872 18.7318 302.16 18.1385C302.452 17.5452 302.856 17.0845 303.373 16.7564C303.894 16.4283 304.498 16.2642 305.188 16.2642C305.877 16.2642 306.48 16.4283 306.998 16.7564C307.518 17.0845 307.922 17.5452 308.211 18.1385C308.502 18.7318 308.648 19.4261 308.648 20.2216C308.648 21.0104 308.502 21.6998 308.211 22.2898C307.922 22.8797 307.518 23.3388 306.998 23.6669C306.48 23.995 305.877 24.1591 305.188 24.1591ZM305.188 23.1051C305.712 23.1051 306.142 22.9709 306.48 22.7024C306.819 22.4339 307.069 22.081 307.231 21.6435C307.394 21.206 307.475 20.732 307.475 20.2216C307.475 19.7112 307.394 19.2356 307.231 18.7947C307.069 18.3539 306.819 17.9976 306.48 17.7259C306.142 17.4541 305.712 17.3182 305.188 17.3182C304.664 17.3182 304.233 17.4541 303.895 17.7259C303.557 17.9976 303.307 18.3539 303.145 18.7947C302.982 19.2356 302.901 19.7112 302.901 20.2216C302.901 20.732 302.982 21.206 303.145 21.6435C303.307 22.081 303.557 22.4339 303.895 22.7024C304.233 22.9709 304.664 23.1051 305.188 23.1051ZM310.439 24V16.3636H311.573V17.517H311.652C311.791 17.1392 312.043 16.8326 312.408 16.5973C312.772 16.362 313.183 16.2443 313.641 16.2443C313.727 16.2443 313.835 16.246 313.964 16.2493C314.093 16.2526 314.191 16.2576 314.257 16.2642V17.4574C314.218 17.4474 314.126 17.4325 313.984 17.4126C313.845 17.3894 313.697 17.3778 313.541 17.3778C313.17 17.3778 312.839 17.4557 312.547 17.6115C312.259 17.764 312.03 17.9761 311.861 18.2479C311.695 18.5163 311.612 18.8229 311.612 19.1676V24H310.439ZM327.881 18.0739L326.827 18.3722C326.761 18.1965 326.663 18.0258 326.534 17.8601C326.408 17.6911 326.236 17.5518 326.017 17.4425C325.798 17.3331 325.518 17.2784 325.177 17.2784C324.71 17.2784 324.32 17.3861 324.009 17.6016C323.7 17.8137 323.546 18.0838 323.546 18.4119C323.546 18.7036 323.652 18.9339 323.864 19.103C324.076 19.272 324.408 19.4129 324.859 19.5256L325.992 19.804C326.675 19.9697 327.184 20.2232 327.518 20.5646C327.853 20.9027 328.021 21.3385 328.021 21.8722C328.021 22.3097 327.895 22.7008 327.643 23.0455C327.394 23.3902 327.046 23.6619 326.599 23.8608C326.151 24.0597 325.631 24.1591 325.038 24.1591C324.259 24.1591 323.614 23.9901 323.104 23.652C322.593 23.3139 322.27 22.8201 322.134 22.1705L323.248 21.892C323.354 22.303 323.554 22.6113 323.849 22.8168C324.148 23.0223 324.537 23.125 325.018 23.125C325.565 23.125 325.999 23.009 326.32 22.777C326.645 22.5417 326.808 22.2599 326.808 21.9318C326.808 21.6667 326.715 21.4446 326.529 21.2656C326.344 21.0833 326.058 20.9474 325.674 20.858L324.401 20.5597C323.702 20.3939 323.188 20.1371 322.86 19.7891C322.535 19.4377 322.373 18.9986 322.373 18.4716C322.373 18.0407 322.494 17.6596 322.736 17.3281C322.981 16.9967 323.314 16.7365 323.735 16.5476C324.159 16.3587 324.64 16.2642 325.177 16.2642C325.933 16.2642 326.526 16.4299 326.957 16.7614C327.391 17.0928 327.699 17.5303 327.881 18.0739ZM329.787 24V16.3636H330.96V24H329.787ZM330.383 15.0909C330.155 15.0909 329.957 15.013 329.792 14.8572C329.629 14.7015 329.548 14.5142 329.548 14.2955C329.548 14.0767 329.629 13.8894 329.792 13.7337C329.957 13.5779 330.155 13.5 330.383 13.5C330.612 13.5 330.808 13.5779 330.97 13.7337C331.136 13.8894 331.219 14.0767 331.219 14.2955C331.219 14.5142 331.136 14.7015 330.97 14.8572C330.808 15.013 330.612 15.0909 330.383 15.0909ZM336.43 16.3636V17.358H332.473V16.3636H336.43ZM333.626 14.5341H334.799V21.8125C334.799 22.1439 334.847 22.3925 334.944 22.5582C335.043 22.7206 335.169 22.83 335.321 22.8864C335.477 22.9394 335.641 22.9659 335.814 22.9659C335.943 22.9659 336.049 22.9593 336.132 22.946C336.215 22.9295 336.281 22.9162 336.331 22.9062L336.569 23.9602C336.49 23.9901 336.379 24.0199 336.236 24.0497C336.094 24.0829 335.913 24.0994 335.694 24.0994C335.363 24.0994 335.038 24.0282 334.72 23.8857C334.405 23.7431 334.143 23.526 333.934 23.2344C333.729 22.9427 333.626 22.5748 333.626 22.1307V14.5341ZM347.266 24.179C346.782 24.179 346.343 24.0878 345.949 23.9055C345.554 23.7199 345.241 23.4531 345.009 23.1051C344.777 22.7538 344.661 22.3295 344.661 21.8324C344.661 21.3949 344.747 21.0402 344.92 20.7685C345.092 20.4934 345.322 20.2779 345.611 20.1222C345.899 19.9664 346.217 19.8504 346.565 19.7741C346.917 19.6946 347.27 19.6316 347.624 19.5852C348.088 19.5256 348.464 19.4808 348.753 19.451C349.045 19.4179 349.257 19.3632 349.389 19.2869C349.525 19.2107 349.593 19.0781 349.593 18.8892V18.8494C349.593 18.3589 349.459 17.9777 349.19 17.706C348.925 17.4342 348.522 17.2983 347.982 17.2983C347.422 17.2983 346.983 17.4209 346.665 17.6662C346.347 17.9115 346.123 18.1733 345.994 18.4517L344.88 18.054C345.079 17.59 345.344 17.2287 345.675 16.9702C346.01 16.7083 346.375 16.526 346.769 16.4233C347.167 16.3172 347.558 16.2642 347.942 16.2642C348.188 16.2642 348.469 16.294 348.788 16.3537C349.109 16.41 349.419 16.5277 349.717 16.7067C350.019 16.8857 350.269 17.1558 350.468 17.517C350.667 17.8783 350.766 18.3622 350.766 18.9688V24H349.593V22.9659H349.533C349.454 23.1316 349.321 23.3089 349.136 23.4979C348.95 23.6868 348.703 23.8475 348.395 23.9801C348.087 24.1127 347.71 24.179 347.266 24.179ZM347.445 23.125C347.909 23.125 348.3 23.0339 348.619 22.8516C348.94 22.6693 349.182 22.4339 349.344 22.1456C349.51 21.8572 349.593 21.554 349.593 21.2358V20.1619C349.543 20.2216 349.434 20.2763 349.265 20.326C349.099 20.3724 348.907 20.4138 348.688 20.4503C348.473 20.4834 348.262 20.5133 348.057 20.5398C347.855 20.563 347.691 20.5829 347.565 20.5994C347.26 20.6392 346.975 20.7038 346.71 20.7933C346.448 20.8795 346.236 21.0104 346.073 21.1861C345.914 21.3584 345.835 21.5937 345.835 21.892C345.835 22.2997 345.985 22.608 346.287 22.8168C346.592 23.0223 346.978 23.125 347.445 23.125ZM352.908 24V16.3636H354.041V17.5568H354.141C354.3 17.1491 354.557 16.8326 354.911 16.6072C355.266 16.3786 355.692 16.2642 356.189 16.2642C356.693 16.2642 357.112 16.3786 357.447 16.6072C357.785 16.8326 358.048 17.1491 358.237 17.5568H358.317C358.512 17.1624 358.806 16.8492 359.197 16.6172C359.588 16.3819 360.057 16.2642 360.604 16.2642C361.287 16.2642 361.845 16.478 362.279 16.9055C362.713 17.3298 362.931 17.991 362.931 18.8892V24H361.757V18.8892C361.757 18.3258 361.603 17.9231 361.295 17.6811C360.987 17.4392 360.624 17.3182 360.206 17.3182C359.669 17.3182 359.253 17.4806 358.958 17.8054C358.663 18.1269 358.516 18.5346 358.516 19.0284V24H357.323V18.7699C357.323 18.3357 357.182 17.986 356.9 17.7209C356.618 17.4524 356.255 17.3182 355.811 17.3182C355.506 17.3182 355.221 17.3994 354.956 17.5618C354.694 17.7242 354.482 17.9496 354.32 18.2379C354.161 18.523 354.081 18.8527 354.081 19.2273V24H352.908ZM368.278 24.1591C367.542 24.1591 366.907 23.9967 366.373 23.6719C365.843 23.3438 365.434 22.8864 365.145 22.2997C364.86 21.7098 364.718 21.0237 364.718 20.2415C364.718 19.4593 364.86 18.7699 365.145 18.1733C365.434 17.5734 365.835 17.1061 366.349 16.7713C366.866 16.4332 367.469 16.2642 368.158 16.2642C368.556 16.2642 368.949 16.3305 369.336 16.4631C369.724 16.5956 370.077 16.8111 370.395 17.1094C370.714 17.4044 370.967 17.7955 371.156 18.2827C371.345 18.7699 371.439 19.3698 371.439 20.0824V20.5795H365.553V19.5653H370.246C370.246 19.1345 370.16 18.75 369.988 18.4119C369.819 18.0739 369.577 17.8071 369.262 17.6115C368.95 17.416 368.582 17.3182 368.158 17.3182C367.691 17.3182 367.287 17.4342 366.945 17.6662C366.607 17.8949 366.347 18.1932 366.165 18.5611C365.982 18.929 365.891 19.3234 365.891 19.7443V20.4205C365.891 20.9972 365.991 21.486 366.189 21.8871C366.392 22.2848 366.672 22.5881 367.03 22.7969C367.388 23.0024 367.804 23.1051 368.278 23.1051C368.586 23.1051 368.864 23.062 369.113 22.9759C369.365 22.8864 369.582 22.7538 369.764 22.5781C369.946 22.3991 370.087 22.1771 370.187 21.9119L371.32 22.2301C371.201 22.6146 371 22.9527 370.719 23.2443C370.437 23.5327 370.089 23.758 369.675 23.9205C369.26 24.0795 368.795 24.1591 368.278 24.1591ZM376.545 16.3636V17.358H372.588V16.3636H376.545ZM373.741 14.5341H374.915V21.8125C374.915 22.1439 374.963 22.3925 375.059 22.5582C375.158 22.7206 375.284 22.83 375.437 22.8864C375.592 22.9394 375.756 22.9659 375.929 22.9659C376.058 22.9659 376.164 22.9593 376.247 22.946C376.33 22.9295 376.396 22.9162 376.446 22.9062L376.684 23.9602C376.605 23.9901 376.494 24.0199 376.351 24.0497C376.209 24.0829 376.028 24.0994 375.809 24.0994C375.478 24.0994 375.153 24.0282 374.835 23.8857C374.52 23.7431 374.258 23.526 374.05 23.2344C373.844 22.9427 373.741 22.5748 373.741 22.1307V14.5341ZM388.237 24.1591C387.521 24.1591 386.904 23.9901 386.387 23.652C385.87 23.3139 385.472 22.8482 385.194 22.255C384.916 21.6617 384.776 20.9839 384.776 20.2216C384.776 19.446 384.919 18.7616 385.204 18.1683C385.492 17.5717 385.893 17.1061 386.407 16.7713C386.924 16.4332 387.527 16.2642 388.217 16.2642C388.754 16.2642 389.238 16.3636 389.669 16.5625C390.099 16.7614 390.452 17.0398 390.727 17.3977C391.003 17.7557 391.173 18.1733 391.24 18.6506H390.066C389.977 18.3026 389.778 17.9943 389.47 17.7259C389.165 17.4541 388.754 17.3182 388.237 17.3182C387.779 17.3182 387.378 17.4375 387.034 17.6761C386.692 17.9115 386.425 18.2446 386.233 18.6754C386.044 19.103 385.95 19.6051 385.95 20.1818C385.95 20.7718 386.043 21.2855 386.228 21.723C386.417 22.1605 386.682 22.5002 387.024 22.7422C387.368 22.9841 387.773 23.1051 388.237 23.1051C388.542 23.1051 388.818 23.0521 389.067 22.946C389.316 22.84 389.526 22.6875 389.698 22.4886C389.871 22.2898 389.993 22.0511 390.066 21.7727H391.24C391.173 22.2235 391.009 22.6295 390.747 22.9908C390.489 23.3487 390.146 23.6338 389.718 23.8459C389.294 24.0547 388.8 24.1591 388.237 24.1591ZM396.057 24.1591C395.368 24.1591 394.763 23.995 394.242 23.6669C393.725 23.3388 393.321 22.8797 393.029 22.2898C392.741 21.6998 392.597 21.0104 392.597 20.2216C392.597 19.4261 392.741 18.7318 393.029 18.1385C393.321 17.5452 393.725 17.0845 394.242 16.7564C394.763 16.4283 395.368 16.2642 396.057 16.2642C396.746 16.2642 397.35 16.4283 397.867 16.7564C398.387 17.0845 398.791 17.5452 399.08 18.1385C399.371 18.7318 399.517 19.4261 399.517 20.2216C399.517 21.0104 399.371 21.6998 399.08 22.2898C398.791 22.8797 398.387 23.3388 397.867 23.6669C397.35 23.995 396.746 24.1591 396.057 24.1591ZM396.057 23.1051C396.581 23.1051 397.012 22.9709 397.35 22.7024C397.688 22.4339 397.938 22.081 398.1 21.6435C398.263 21.206 398.344 20.732 398.344 20.2216C398.344 19.7112 398.263 19.2356 398.1 18.7947C397.938 18.3539 397.688 17.9976 397.35 17.7259C397.012 17.4541 396.581 17.3182 396.057 17.3182C395.533 17.3182 395.102 17.4541 394.764 17.7259C394.426 17.9976 394.176 18.3539 394.014 18.7947C393.851 19.2356 393.77 19.7112 393.77 20.2216C393.77 20.732 393.851 21.206 394.014 21.6435C394.176 22.081 394.426 22.4339 394.764 22.7024C395.102 22.9709 395.533 23.1051 396.057 23.1051ZM402.482 19.4062V24H401.308V16.3636H402.442V17.5568H402.541C402.72 17.169 402.992 16.8575 403.357 16.6222C403.721 16.3835 404.192 16.2642 404.768 16.2642C405.286 16.2642 405.738 16.3703 406.126 16.5824C406.513 16.7912 406.815 17.1094 407.031 17.5369C407.246 17.9612 407.354 18.4981 407.354 19.1477V24H406.18V19.2273C406.18 18.6274 406.025 18.16 405.713 17.8253C405.402 17.4872 404.974 17.3182 404.43 17.3182C404.056 17.3182 403.721 17.3994 403.426 17.5618C403.134 17.7242 402.904 17.9612 402.735 18.2727C402.566 18.5843 402.482 18.9621 402.482 19.4062ZM414.907 18.0739L413.853 18.3722C413.787 18.1965 413.689 18.0258 413.559 17.8601C413.434 17.6911 413.261 17.5518 413.042 17.4425C412.824 17.3331 412.544 17.2784 412.202 17.2784C411.735 17.2784 411.345 17.3861 411.034 17.6016C410.726 17.8137 410.572 18.0838 410.572 18.4119C410.572 18.7036 410.678 18.9339 410.89 19.103C411.102 19.272 411.433 19.4129 411.884 19.5256L413.018 19.804C413.7 19.9697 414.209 20.2232 414.544 20.5646C414.879 20.9027 415.046 21.3385 415.046 21.8722C415.046 22.3097 414.92 22.7008 414.668 23.0455C414.42 23.3902 414.072 23.6619 413.624 23.8608C413.177 24.0597 412.656 24.1591 412.063 24.1591C411.284 24.1591 410.64 23.9901 410.129 23.652C409.619 23.3139 409.296 22.8201 409.16 22.1705L410.273 21.892C410.379 22.303 410.58 22.6113 410.875 22.8168C411.173 23.0223 411.563 23.125 412.043 23.125C412.59 23.125 413.024 23.009 413.346 22.777C413.671 22.5417 413.833 22.2599 413.833 21.9318C413.833 21.6667 413.74 21.4446 413.555 21.2656C413.369 21.0833 413.084 20.9474 412.699 20.858L411.427 20.5597C410.727 20.3939 410.214 20.1371 409.885 19.7891C409.561 19.4377 409.398 18.9986 409.398 18.4716C409.398 18.0407 409.519 17.6596 409.761 17.3281C410.006 16.9967 410.34 16.7365 410.76 16.5476C411.185 16.3587 411.665 16.2642 412.202 16.2642C412.958 16.2642 413.551 16.4299 413.982 16.7614C414.416 17.0928 414.724 17.5303 414.907 18.0739ZM420.014 24.1591C419.278 24.1591 418.643 23.9967 418.11 23.6719C417.579 23.3438 417.17 22.8864 416.882 22.2997C416.597 21.7098 416.454 21.0237 416.454 20.2415C416.454 19.4593 416.597 18.7699 416.882 18.1733C417.17 17.5734 417.571 17.1061 418.085 16.7713C418.602 16.4332 419.205 16.2642 419.895 16.2642C420.292 16.2642 420.685 16.3305 421.073 16.4631C421.461 16.5956 421.814 16.8111 422.132 17.1094C422.45 17.4044 422.703 17.7955 422.892 18.2827C423.081 18.7699 423.176 19.3698 423.176 20.0824V20.5795H417.289V19.5653H421.983C421.983 19.1345 421.896 18.75 421.724 18.4119C421.555 18.0739 421.313 17.8071 420.998 17.6115C420.687 17.416 420.319 17.3182 419.895 17.3182C419.427 17.3182 419.023 17.4342 418.681 17.6662C418.343 17.8949 418.083 18.1932 417.901 18.5611C417.719 18.929 417.627 19.3234 417.627 19.7443V20.4205C417.627 20.9972 417.727 21.486 417.926 21.8871C418.128 22.2848 418.408 22.5881 418.766 22.7969C419.124 23.0024 419.54 23.1051 420.014 23.1051C420.322 23.1051 420.6 23.062 420.849 22.9759C421.101 22.8864 421.318 22.7538 421.5 22.5781C421.683 22.3991 421.824 22.1771 421.923 21.9119L423.056 22.2301C422.937 22.6146 422.737 22.9527 422.455 23.2443C422.173 23.5327 421.825 23.758 421.411 23.9205C420.997 24.0795 420.531 24.1591 420.014 24.1591ZM428.063 24.1591C427.347 24.1591 426.73 23.9901 426.213 23.652C425.696 23.3139 425.299 22.8482 425.02 22.255C424.742 21.6617 424.603 20.9839 424.603 20.2216C424.603 19.446 424.745 18.7616 425.03 18.1683C425.319 17.5717 425.72 17.1061 426.233 16.7713C426.75 16.4332 427.354 16.2642 428.043 16.2642C428.58 16.2642 429.064 16.3636 429.495 16.5625C429.926 16.7614 430.279 17.0398 430.554 17.3977C430.829 17.7557 430.999 18.1733 431.066 18.6506H429.892C429.803 18.3026 429.604 17.9943 429.296 17.7259C428.991 17.4541 428.58 17.3182 428.063 17.3182C427.605 17.3182 427.204 17.4375 426.86 17.6761C426.518 17.9115 426.252 18.2446 426.059 18.6754C425.87 19.103 425.776 19.6051 425.776 20.1818C425.776 20.7718 425.869 21.2855 426.054 21.723C426.243 22.1605 426.508 22.5002 426.85 22.7422C427.194 22.9841 427.599 23.1051 428.063 23.1051C428.368 23.1051 428.645 23.0521 428.893 22.946C429.142 22.84 429.352 22.6875 429.525 22.4886C429.697 22.2898 429.819 22.0511 429.892 21.7727H431.066C430.999 22.2235 430.835 22.6295 430.574 22.9908C430.315 23.3487 429.972 23.6338 429.544 23.8459C429.12 24.0547 428.626 24.1591 428.063 24.1591ZM436.102 16.3636V17.358H432.145V16.3636H436.102ZM433.298 14.5341H434.471V21.8125C434.471 22.1439 434.519 22.3925 434.615 22.5582C434.715 22.7206 434.841 22.83 434.993 22.8864C435.149 22.9394 435.313 22.9659 435.485 22.9659C435.615 22.9659 435.721 22.9593 435.804 22.946C435.886 22.9295 435.953 22.9162 436.002 22.9062L436.241 23.9602C436.162 23.9901 436.051 24.0199 435.908 24.0497C435.766 24.0829 435.585 24.0994 435.366 24.0994C435.035 24.0994 434.71 24.0282 434.392 23.8857C434.077 23.7431 433.815 23.526 433.606 23.2344C433.401 22.9427 433.298 22.5748 433.298 22.1307V14.5341ZM440.987 24.1591C440.251 24.1591 439.616 23.9967 439.082 23.6719C438.552 23.3438 438.143 22.8864 437.854 22.2997C437.569 21.7098 437.427 21.0237 437.427 20.2415C437.427 19.4593 437.569 18.7699 437.854 18.1733C438.143 17.5734 438.544 17.1061 439.058 16.7713C439.575 16.4332 440.178 16.2642 440.867 16.2642C441.265 16.2642 441.658 16.3305 442.045 16.4631C442.433 16.5956 442.786 16.8111 443.104 17.1094C443.423 17.4044 443.676 17.7955 443.865 18.2827C444.054 18.7699 444.148 19.3698 444.148 20.0824V20.5795H438.262V19.5653H442.955C442.955 19.1345 442.869 18.75 442.697 18.4119C442.528 18.0739 442.286 17.8071 441.971 17.6115C441.659 17.416 441.291 17.3182 440.867 17.3182C440.4 17.3182 439.996 17.4342 439.654 17.6662C439.316 17.8949 439.056 18.1932 438.874 18.5611C438.691 18.929 438.6 19.3234 438.6 19.7443V20.4205C438.6 20.9972 438.7 21.486 438.898 21.8871C439.101 22.2848 439.381 22.5881 439.739 22.7969C440.097 23.0024 440.513 23.1051 440.987 23.1051C441.295 23.1051 441.573 23.062 441.822 22.9759C442.074 22.8864 442.291 22.7538 442.473 22.5781C442.655 22.3991 442.796 22.1771 442.896 21.9119L444.029 22.2301C443.91 22.6146 443.709 22.9527 443.428 23.2443C443.146 23.5327 442.798 23.758 442.384 23.9205C441.969 24.0795 441.504 24.1591 440.987 24.1591ZM449.254 16.3636V17.358H445.297V16.3636H449.254ZM446.45 14.5341H447.624V21.8125C447.624 22.1439 447.672 22.3925 447.768 22.5582C447.867 22.7206 447.993 22.83 448.146 22.8864C448.301 22.9394 448.465 22.9659 448.638 22.9659C448.767 22.9659 448.873 22.9593 448.956 22.946C449.039 22.9295 449.105 22.9162 449.155 22.9062L449.393 23.9602C449.314 23.9901 449.203 24.0199 449.06 24.0497C448.918 24.0829 448.737 24.0994 448.518 24.0994C448.187 24.0994 447.862 24.0282 447.544 23.8857C447.229 23.7431 446.967 23.526 446.759 23.2344C446.553 22.9427 446.45 22.5748 446.45 22.1307V14.5341ZM455.832 20.8778V16.3636H457.005V24H455.832V22.7074H455.752C455.573 23.0952 455.295 23.425 454.917 23.6967C454.539 23.9652 454.062 24.0994 453.485 24.0994C453.008 24.0994 452.584 23.995 452.212 23.7862C451.841 23.5741 451.549 23.2559 451.337 22.8317C451.125 22.4041 451.019 21.8655 451.019 21.2159V16.3636H452.192V21.1364C452.192 21.6932 452.348 22.1373 452.66 22.4688C452.975 22.8002 453.376 22.9659 453.863 22.9659C454.155 22.9659 454.451 22.8913 454.753 22.7422C455.058 22.593 455.313 22.3643 455.518 22.0561C455.727 21.7479 455.832 21.3551 455.832 20.8778ZM459.154 24V16.3636H460.287V17.517H460.367C460.506 17.1392 460.758 16.8326 461.123 16.5973C461.487 16.362 461.898 16.2443 462.356 16.2443C462.442 16.2443 462.55 16.246 462.679 16.2493C462.808 16.2526 462.906 16.2576 462.972 16.2642V17.4574C462.932 17.4474 462.841 17.4325 462.699 17.4126C462.559 17.3894 462.412 17.3778 462.256 17.3778C461.885 17.3778 461.554 17.4557 461.262 17.6115C460.974 17.764 460.745 17.9761 460.576 18.2479C460.41 18.5163 460.327 18.8229 460.327 19.1676V24H459.154ZM464.343 24.0795C464.098 24.0795 463.887 23.9917 463.712 23.8161C463.536 23.6404 463.448 23.4299 463.448 23.1847C463.448 22.9394 463.536 22.7289 463.712 22.5533C463.887 22.3776 464.098 22.2898 464.343 22.2898C464.588 22.2898 464.799 22.3776 464.974 22.5533C465.15 22.7289 465.238 22.9394 465.238 23.1847C465.238 23.3471 465.196 23.4962 465.114 23.6321C465.034 23.768 464.926 23.8774 464.79 23.9602C464.658 24.0398 464.509 24.0795 464.343 24.0795ZM474.744 13.8182L477.767 22.3892H477.886L480.909 13.8182H482.202L478.463 24H477.19L473.452 13.8182H474.744ZM483.629 24V16.3636H484.802V24H483.629ZM484.225 15.0909C483.996 15.0909 483.799 15.013 483.634 14.8572C483.471 14.7015 483.39 14.5142 483.39 14.2955C483.39 14.0767 483.471 13.8894 483.634 13.7337C483.799 13.5779 483.996 13.5 484.225 13.5C484.454 13.5 484.649 13.5779 484.812 13.7337C484.978 13.8894 485.06 14.0767 485.06 14.2955C485.06 14.5142 484.978 14.7015 484.812 14.8572C484.649 15.013 484.454 15.0909 484.225 15.0909ZM490.272 16.3636V17.358H486.314V16.3636H490.272ZM487.468 14.5341H488.641V21.8125C488.641 22.1439 488.689 22.3925 488.785 22.5582C488.885 22.7206 489.011 22.83 489.163 22.8864C489.319 22.9394 489.483 22.9659 489.655 22.9659C489.785 22.9659 489.891 22.9593 489.974 22.946C490.056 22.9295 490.123 22.9162 490.172 22.9062L490.411 23.9602C490.331 23.9901 490.22 24.0199 490.078 24.0497C489.935 24.0829 489.755 24.0994 489.536 24.0994C489.205 24.0994 488.88 24.0282 488.562 23.8857C488.247 23.7431 487.985 23.526 487.776 23.2344C487.571 22.9427 487.468 22.5748 487.468 22.1307V14.5341ZM494.284 24.179C493.8 24.179 493.361 24.0878 492.966 23.9055C492.572 23.7199 492.259 23.4531 492.027 23.1051C491.795 22.7538 491.679 22.3295 491.679 21.8324C491.679 21.3949 491.765 21.0402 491.937 20.7685C492.11 20.4934 492.34 20.2779 492.628 20.1222C492.917 19.9664 493.235 19.8504 493.583 19.7741C493.934 19.6946 494.287 19.6316 494.642 19.5852C495.106 19.5256 495.482 19.4808 495.77 19.451C496.062 19.4179 496.274 19.3632 496.407 19.2869C496.543 19.2107 496.611 19.0781 496.611 18.8892V18.8494C496.611 18.3589 496.476 17.9777 496.208 17.706C495.943 17.4342 495.54 17.2983 495 17.2983C494.44 17.2983 494.001 17.4209 493.682 17.6662C493.364 17.9115 493.14 18.1733 493.011 18.4517L491.898 18.054C492.096 17.59 492.362 17.2287 492.693 16.9702C493.028 16.7083 493.392 16.526 493.787 16.4233C494.184 16.3172 494.576 16.2642 494.96 16.2642C495.205 16.2642 495.487 16.294 495.805 16.3537C496.127 16.41 496.437 16.5277 496.735 16.7067C497.037 16.8857 497.287 17.1558 497.486 17.517C497.684 17.8783 497.784 18.3622 497.784 18.9688V24H496.611V22.9659H496.551C496.471 23.1316 496.339 23.3089 496.153 23.4979C495.968 23.6868 495.721 23.8475 495.412 23.9801C495.104 24.1127 494.728 24.179 494.284 24.179ZM494.463 23.125C494.927 23.125 495.318 23.0339 495.636 22.8516C495.958 22.6693 496.2 22.4339 496.362 22.1456C496.528 21.8572 496.611 21.554 496.611 21.2358V20.1619C496.561 20.2216 496.452 20.2763 496.282 20.326C496.117 20.3724 495.925 20.4138 495.706 20.4503C495.49 20.4834 495.28 20.5133 495.074 20.5398C494.872 20.563 494.708 20.5829 494.582 20.5994C494.277 20.6392 493.992 20.7038 493.727 20.7933C493.465 20.8795 493.253 21.0104 493.091 21.1861C492.932 21.3584 492.852 21.5937 492.852 21.892C492.852 22.2997 493.003 22.608 493.305 22.8168C493.609 23.0223 493.996 23.125 494.463 23.125ZM503.127 24.1591C502.391 24.1591 501.757 23.9967 501.223 23.6719C500.693 23.3438 500.283 22.8864 499.995 22.2997C499.71 21.7098 499.567 21.0237 499.567 20.2415C499.567 19.4593 499.71 18.7699 499.995 18.1733C500.283 17.5734 500.684 17.1061 501.198 16.7713C501.715 16.4332 502.318 16.2642 503.008 16.2642C503.406 16.2642 503.798 16.3305 504.186 16.4631C504.574 16.5956 504.927 16.8111 505.245 17.1094C505.563 17.4044 505.817 17.7955 506.006 18.2827C506.195 18.7699 506.289 19.3698 506.289 20.0824V20.5795H500.403V19.5653H505.096C505.096 19.1345 505.01 18.75 504.837 18.4119C504.668 18.0739 504.426 17.8071 504.112 17.6115C503.8 17.416 503.432 17.3182 503.008 17.3182C502.54 17.3182 502.136 17.4342 501.795 17.6662C501.457 17.8949 501.196 18.1932 501.014 18.5611C500.832 18.929 500.741 19.3234 500.741 19.7443V20.4205C500.741 20.9972 500.84 21.486 501.039 21.8871C501.241 22.2848 501.521 22.5881 501.879 22.7969C502.237 23.0024 502.653 23.1051 503.127 23.1051C503.435 23.1051 503.714 23.062 503.962 22.9759C504.214 22.8864 504.431 22.7538 504.614 22.5781C504.796 22.3991 504.937 22.1771 505.036 21.9119L506.17 22.2301C506.05 22.6146 505.85 22.9527 505.568 23.2443C505.286 23.5327 504.938 23.758 504.524 23.9205C504.11 24.0795 503.644 24.1591 503.127 24.1591ZM189.957 41.1591C189.321 41.1591 188.759 40.9983 188.272 40.6768C187.785 40.352 187.404 39.8946 187.129 39.3047C186.853 38.7114 186.716 38.0104 186.716 37.2017C186.716 36.3996 186.853 35.7036 187.129 35.1136C187.404 34.5237 187.786 34.0679 188.277 33.7464C188.768 33.425 189.334 33.2642 189.977 33.2642C190.474 33.2642 190.867 33.3471 191.156 33.5128C191.447 33.6752 191.669 33.8608 191.822 34.0696C191.978 34.2751 192.098 34.4441 192.185 34.5767H192.284V30.8182H193.457V41H192.324V39.8267H192.185C192.098 39.9659 191.976 40.1416 191.817 40.3537C191.658 40.5625 191.431 40.7498 191.136 40.9155C190.841 41.0779 190.448 41.1591 189.957 41.1591ZM190.116 40.1051C190.587 40.1051 190.985 39.9825 191.31 39.7372C191.634 39.4886 191.881 39.1456 192.05 38.7081C192.219 38.2673 192.304 37.7585 192.304 37.1818C192.304 36.6117 192.221 36.1129 192.055 35.6854C191.89 35.2545 191.644 34.9197 191.32 34.6811C190.995 34.4392 190.594 34.3182 190.116 34.3182C189.619 34.3182 189.205 34.4458 188.874 34.701C188.545 34.9529 188.299 35.2959 188.133 35.7301C187.97 36.161 187.889 36.6449 187.889 37.1818C187.889 37.7254 187.972 38.2192 188.138 38.6634C188.307 39.1042 188.555 39.4555 188.884 39.7173C189.215 39.9759 189.626 40.1051 190.116 40.1051ZM195.769 41V33.3636H196.942V41H195.769ZM196.366 32.0909C196.137 32.0909 195.94 32.013 195.774 31.8572C195.612 31.7015 195.531 31.5142 195.531 31.2955C195.531 31.0767 195.612 30.8894 195.774 30.7337C195.94 30.5779 196.137 30.5 196.366 30.5C196.594 30.5 196.79 30.5779 196.952 30.7337C197.118 30.8894 197.201 31.0767 197.201 31.2955C197.201 31.5142 197.118 31.7015 196.952 31.8572C196.79 32.013 196.594 32.0909 196.366 32.0909ZM202.194 41.1591C201.478 41.1591 200.861 40.9901 200.344 40.652C199.827 40.3139 199.43 39.8482 199.151 39.255C198.873 38.6617 198.733 37.9839 198.733 37.2216C198.733 36.446 198.876 35.7616 199.161 35.1683C199.449 34.5717 199.85 34.1061 200.364 33.7713C200.881 33.4332 201.484 33.2642 202.174 33.2642C202.711 33.2642 203.195 33.3636 203.626 33.5625C204.056 33.7614 204.409 34.0398 204.684 34.3977C204.96 34.7557 205.13 35.1733 205.197 35.6506H204.023C203.934 35.3026 203.735 34.9943 203.427 34.7259C203.122 34.4541 202.711 34.3182 202.194 34.3182C201.736 34.3182 201.335 34.4375 200.991 34.6761C200.649 34.9115 200.382 35.2446 200.19 35.6754C200.001 36.103 199.907 36.6051 199.907 37.1818C199.907 37.7718 200 38.2855 200.185 38.723C200.374 39.1605 200.639 39.5002 200.981 39.7422C201.325 39.9841 201.73 40.1051 202.194 40.1051C202.499 40.1051 202.775 40.0521 203.024 39.946C203.273 39.84 203.483 39.6875 203.655 39.4886C203.828 39.2898 203.95 39.0511 204.023 38.7727H205.197C205.13 39.2235 204.966 39.6295 204.704 39.9908C204.446 40.3487 204.103 40.6338 203.675 40.8459C203.251 41.0547 202.757 41.1591 202.194 41.1591ZM210.233 33.3636V34.358H206.275V33.3636H210.233ZM207.429 31.5341H208.602V38.8125C208.602 39.1439 208.65 39.3925 208.746 39.5582C208.846 39.7206 208.972 39.83 209.124 39.8864C209.28 39.9394 209.444 39.9659 209.616 39.9659C209.746 39.9659 209.852 39.9593 209.934 39.946C210.017 39.9295 210.084 39.9162 210.133 39.9062L210.372 40.9602C210.292 40.9901 210.181 41.0199 210.039 41.0497C209.896 41.0829 209.716 41.0994 209.497 41.0994C209.166 41.0994 208.841 41.0282 208.523 40.8857C208.208 40.7431 207.946 40.526 207.737 40.2344C207.532 39.9427 207.429 39.5748 207.429 39.1307V31.5341ZM216.81 37.8778V33.3636H217.983V41H216.81V39.7074H216.731C216.552 40.0952 216.273 40.425 215.895 40.6967C215.518 40.9652 215.04 41.0994 214.464 41.0994C213.986 41.0994 213.562 40.995 213.191 40.7862C212.82 40.5741 212.528 40.2559 212.316 39.8317C212.104 39.4041 211.998 38.8655 211.998 38.2159V33.3636H213.171V38.1364C213.171 38.6932 213.327 39.1373 213.638 39.4688C213.953 39.8002 214.354 39.9659 214.841 39.9659C215.133 39.9659 215.43 39.8913 215.731 39.7422C216.036 39.593 216.291 39.3643 216.497 39.0561C216.706 38.7479 216.81 38.3551 216.81 37.8778ZM220.132 41V33.3636H221.266V34.5568H221.365C221.525 34.1491 221.781 33.8326 222.136 33.6072C222.491 33.3786 222.917 33.2642 223.414 33.2642C223.917 33.2642 224.337 33.3786 224.672 33.6072C225.01 33.8326 225.273 34.1491 225.462 34.5568H225.542C225.737 34.1624 226.03 33.8492 226.422 33.6172C226.813 33.3819 227.282 33.2642 227.828 33.2642C228.511 33.2642 229.07 33.478 229.504 33.9055C229.938 34.3298 230.155 34.991 230.155 35.8892V41H228.982V35.8892C228.982 35.3258 228.828 34.9231 228.52 34.6811C228.211 34.4392 227.848 34.3182 227.431 34.3182C226.894 34.3182 226.478 34.4806 226.183 34.8054C225.888 35.1269 225.74 35.5346 225.74 36.0284V41H224.547V35.7699C224.547 35.3357 224.406 34.986 224.125 34.7209C223.843 34.4524 223.48 34.3182 223.036 34.3182C222.731 34.3182 222.446 34.3994 222.181 34.5618C221.919 34.7242 221.707 34.9496 221.544 35.2379C221.385 35.523 221.306 35.8527 221.306 36.2273V41H220.132ZM239.895 41.179C239.411 41.179 238.972 41.0878 238.578 40.9055C238.183 40.7199 237.87 40.4531 237.638 40.1051C237.406 39.7538 237.29 39.3295 237.29 38.8324C237.29 38.3949 237.376 38.0402 237.549 37.7685C237.721 37.4934 237.951 37.2779 238.24 37.1222C238.528 36.9664 238.846 36.8504 239.194 36.7741C239.546 36.6946 239.899 36.6316 240.253 36.5852C240.717 36.5256 241.093 36.4808 241.382 36.451C241.673 36.4179 241.886 36.3632 242.018 36.2869C242.154 36.2107 242.222 36.0781 242.222 35.8892V35.8494C242.222 35.3589 242.088 34.9777 241.819 34.706C241.554 34.4342 241.151 34.2983 240.611 34.2983C240.051 34.2983 239.612 34.4209 239.294 34.6662C238.975 34.9115 238.752 35.1733 238.623 35.4517L237.509 35.054C237.708 34.59 237.973 34.2287 238.304 33.9702C238.639 33.7083 239.004 33.526 239.398 33.4233C239.796 33.3172 240.187 33.2642 240.571 33.2642C240.817 33.2642 241.098 33.294 241.417 33.3537C241.738 33.41 242.048 33.5277 242.346 33.7067C242.648 33.8857 242.898 34.1558 243.097 34.517C243.296 34.8783 243.395 35.3622 243.395 35.9688V41H242.222V39.9659H242.162C242.083 40.1316 241.95 40.3089 241.765 40.4979C241.579 40.6868 241.332 40.8475 241.024 40.9801C240.716 41.1127 240.339 41.179 239.895 41.179ZM240.074 40.125C240.538 40.125 240.929 40.0339 241.248 39.8516C241.569 39.6693 241.811 39.4339 241.973 39.1456C242.139 38.8572 242.222 38.554 242.222 38.2358V37.1619C242.172 37.2216 242.063 37.2763 241.894 37.326C241.728 37.3724 241.536 37.4138 241.317 37.4503C241.102 37.4834 240.891 37.5133 240.686 37.5398C240.484 37.563 240.319 37.5829 240.194 37.5994C239.889 37.6392 239.604 37.7038 239.338 37.7933C239.077 37.8795 238.864 38.0104 238.702 38.1861C238.543 38.3584 238.463 38.5937 238.463 38.892C238.463 39.2997 238.614 39.608 238.916 39.8168C239.221 40.0223 239.607 40.125 240.074 40.125ZM248.42 41.1591C247.784 41.1591 247.222 40.9983 246.735 40.6768C246.248 40.352 245.867 39.8946 245.591 39.3047C245.316 38.7114 245.179 38.0104 245.179 37.2017C245.179 36.3996 245.316 35.7036 245.591 35.1136C245.867 34.5237 246.249 34.0679 246.74 33.7464C247.23 33.425 247.797 33.2642 248.44 33.2642C248.937 33.2642 249.33 33.3471 249.618 33.5128C249.91 33.6752 250.132 33.8608 250.285 34.0696C250.44 34.2751 250.561 34.4441 250.648 34.5767H250.747V30.8182H251.92V41H250.787V39.8267H250.648C250.561 39.9659 250.439 40.1416 250.28 40.3537C250.121 40.5625 249.894 40.7498 249.599 40.9155C249.304 41.0779 248.911 41.1591 248.42 41.1591ZM248.579 40.1051C249.05 40.1051 249.448 39.9825 249.773 39.7372C250.097 39.4886 250.344 39.1456 250.513 38.7081C250.682 38.2673 250.767 37.7585 250.767 37.1818C250.767 36.6117 250.684 36.1129 250.518 35.6854C250.353 35.2545 250.107 34.9197 249.782 34.6811C249.458 34.4392 249.057 34.3182 248.579 34.3182C248.082 34.3182 247.668 34.4458 247.336 34.701C247.008 34.9529 246.761 35.2959 246.596 35.7301C246.433 36.161 246.352 36.6449 246.352 37.1818C246.352 37.7254 246.435 38.2192 246.601 38.6634C246.77 39.1042 247.018 39.4555 247.346 39.7173C247.678 39.9759 248.089 40.1051 248.579 40.1051ZM254.232 41V33.3636H255.405V41H254.232ZM254.829 32.0909C254.6 32.0909 254.403 32.013 254.237 31.8572C254.075 31.7015 253.993 31.5142 253.993 31.2955C253.993 31.0767 254.075 30.8894 254.237 30.7337C254.403 30.5779 254.6 30.5 254.829 30.5C255.057 30.5 255.253 30.5779 255.415 30.7337C255.581 30.8894 255.664 31.0767 255.664 31.2955C255.664 31.5142 255.581 31.7015 255.415 31.8572C255.253 32.013 255.057 32.0909 254.829 32.0909ZM257.554 43.8636V33.3636H258.688V34.5767H258.827C258.913 34.4441 259.033 34.2751 259.185 34.0696C259.341 33.8608 259.563 33.6752 259.851 33.5128C260.143 33.3471 260.537 33.2642 261.034 33.2642C261.677 33.2642 262.244 33.425 262.735 33.7464C263.225 34.0679 263.608 34.5237 263.883 35.1136C264.158 35.7036 264.296 36.3996 264.296 37.2017C264.296 38.0104 264.158 38.7114 263.883 39.3047C263.608 39.8946 263.227 40.352 262.74 40.6768C262.252 40.9983 261.691 41.1591 261.054 41.1591C260.564 41.1591 260.171 41.0779 259.876 40.9155C259.581 40.7498 259.354 40.5625 259.195 40.3537C259.036 40.1416 258.913 39.9659 258.827 39.8267H258.728V43.8636H257.554ZM258.708 37.1818C258.708 37.7585 258.792 38.2673 258.961 38.7081C259.13 39.1456 259.377 39.4886 259.702 39.7372C260.027 39.9825 260.425 40.1051 260.895 40.1051C261.386 40.1051 261.795 39.9759 262.123 39.7173C262.455 39.4555 262.703 39.1042 262.869 38.6634C263.038 38.2192 263.123 37.7254 263.123 37.1818C263.123 36.6449 263.04 36.161 262.874 35.7301C262.712 35.2959 262.465 34.9529 262.133 34.701C261.805 34.4458 261.392 34.3182 260.895 34.3182C260.418 34.3182 260.017 34.4392 259.692 34.6811C259.367 34.9197 259.122 35.2545 258.956 35.6854C258.791 36.1129 258.708 36.6117 258.708 37.1818ZM266.086 41V33.3636H267.259V41H266.086ZM266.682 32.0909C266.453 32.0909 266.256 32.013 266.091 31.8572C265.928 31.7015 265.847 31.5142 265.847 31.2955C265.847 31.0767 265.928 30.8894 266.091 30.7337C266.256 30.5779 266.453 30.5 266.682 30.5C266.911 30.5 267.106 30.5779 267.269 30.7337C267.435 30.8894 267.517 31.0767 267.517 31.2955C267.517 31.5142 267.435 31.7015 267.269 31.8572C267.106 32.013 266.911 32.0909 266.682 32.0909ZM274.817 35.0739L273.763 35.3722C273.697 35.1965 273.599 35.0258 273.47 34.8601C273.344 34.6911 273.171 34.5518 272.953 34.4425C272.734 34.3331 272.454 34.2784 272.112 34.2784C271.645 34.2784 271.256 34.3861 270.944 34.6016C270.636 34.8137 270.482 35.0838 270.482 35.4119C270.482 35.7036 270.588 35.9339 270.8 36.103C271.012 36.272 271.343 36.4129 271.794 36.5256L272.928 36.804C273.61 36.9697 274.119 37.2232 274.454 37.5646C274.789 37.9027 274.956 38.3385 274.956 38.8722C274.956 39.3097 274.83 39.7008 274.578 40.0455C274.33 40.3902 273.982 40.6619 273.534 40.8608C273.087 41.0597 272.566 41.1591 271.973 41.1591C271.194 41.1591 270.55 40.9901 270.039 40.652C269.529 40.3139 269.206 39.8201 269.07 39.1705L270.183 38.892C270.289 39.303 270.49 39.6113 270.785 39.8168C271.083 40.0223 271.473 40.125 271.953 40.125C272.5 40.125 272.934 40.009 273.256 39.777C273.581 39.5417 273.743 39.2599 273.743 38.9318C273.743 38.6667 273.65 38.4446 273.465 38.2656C273.279 38.0833 272.994 37.9474 272.61 37.858L271.337 37.5597C270.637 37.3939 270.124 37.1371 269.796 36.7891C269.471 36.4377 269.308 35.9986 269.308 35.4716C269.308 35.0407 269.429 34.6596 269.671 34.3281C269.917 33.9967 270.25 33.7365 270.671 33.5476C271.095 33.3587 271.575 33.2642 272.112 33.2642C272.868 33.2642 273.461 33.4299 273.892 33.7614C274.326 34.0928 274.635 34.5303 274.817 35.0739ZM279.825 41.1591C279.109 41.1591 278.492 40.9901 277.975 40.652C277.458 40.3139 277.06 39.8482 276.782 39.255C276.504 38.6617 276.364 37.9839 276.364 37.2216C276.364 36.446 276.507 35.7616 276.792 35.1683C277.08 34.5717 277.481 34.1061 277.995 33.7713C278.512 33.4332 279.115 33.2642 279.805 33.2642C280.342 33.2642 280.826 33.3636 281.256 33.5625C281.687 33.7614 282.04 34.0398 282.315 34.3977C282.59 34.7557 282.761 35.1733 282.827 35.6506H281.654C281.565 35.3026 281.366 34.9943 281.058 34.7259C280.753 34.4541 280.342 34.3182 279.825 34.3182C279.367 34.3182 278.966 34.4375 278.621 34.6761C278.28 34.9115 278.013 35.2446 277.821 35.6754C277.632 36.103 277.538 36.6051 277.538 37.1818C277.538 37.7718 277.63 38.2855 277.816 38.723C278.005 39.1605 278.27 39.5002 278.612 39.7422C278.956 39.9841 279.361 40.1051 279.825 40.1051C280.129 40.1051 280.406 40.0521 280.655 39.946C280.903 39.84 281.114 39.6875 281.286 39.4886C281.459 39.2898 281.581 39.0511 281.654 38.7727H282.827C282.761 39.2235 282.597 39.6295 282.335 39.9908C282.077 40.3487 281.734 40.6338 281.306 40.8459C280.882 41.0547 280.388 41.1591 279.825 41.1591ZM284.543 41V33.3636H285.716V41H284.543ZM285.139 32.0909C284.911 32.0909 284.713 32.013 284.548 31.8572C284.385 31.7015 284.304 31.5142 284.304 31.2955C284.304 31.0767 284.385 30.8894 284.548 30.7337C284.713 30.5779 284.911 30.5 285.139 30.5C285.368 30.5 285.563 30.5779 285.726 30.7337C285.892 30.8894 285.974 31.0767 285.974 31.2955C285.974 31.5142 285.892 31.7015 285.726 31.8572C285.563 32.013 285.368 32.0909 285.139 32.0909ZM289.038 36.4062V41H287.865V33.3636H288.998V34.5568H289.098C289.277 34.169 289.549 33.8575 289.913 33.6222C290.278 33.3835 290.748 33.2642 291.325 33.2642C291.842 33.2642 292.295 33.3703 292.682 33.5824C293.07 33.7912 293.372 34.1094 293.587 34.5369C293.803 34.9612 293.91 35.4981 293.91 36.1477V41H292.737V36.2273C292.737 35.6274 292.581 35.16 292.27 34.8253C291.958 34.4872 291.531 34.3182 290.987 34.3182C290.613 34.3182 290.278 34.3994 289.983 34.5618C289.691 34.7242 289.461 34.9612 289.292 35.2727C289.123 35.5843 289.038 35.9621 289.038 36.4062ZM299.137 44.0227C298.57 44.0227 298.083 43.9498 297.675 43.804C297.267 43.6615 296.928 43.4725 296.656 43.2372C296.387 43.0052 296.174 42.7566 296.015 42.4915L296.949 41.8352C297.055 41.9744 297.19 42.1335 297.352 42.3125C297.514 42.4948 297.736 42.6522 298.018 42.7848C298.303 42.9207 298.676 42.9886 299.137 42.9886C299.753 42.9886 300.262 42.8395 300.663 42.5412C301.064 42.2429 301.265 41.7756 301.265 41.1392V39.5881H301.165C301.079 39.7273 300.956 39.8996 300.797 40.1051C300.641 40.3073 300.416 40.4879 300.121 40.647C299.829 40.8028 299.435 40.8807 298.938 40.8807C298.321 40.8807 297.768 40.7348 297.277 40.4432C296.79 40.1515 296.404 39.7273 296.119 39.1705C295.837 38.6136 295.696 37.9375 295.696 37.142C295.696 36.3598 295.834 35.6787 296.109 35.0987C296.384 34.5154 296.767 34.0646 297.257 33.7464C297.748 33.425 298.315 33.2642 298.958 33.2642C299.455 33.2642 299.849 33.3471 300.141 33.5128C300.436 33.6752 300.661 33.8608 300.817 34.0696C300.976 34.2751 301.099 34.4441 301.185 34.5767H301.304V33.3636H302.438V41.2188C302.438 41.875 302.289 42.4086 301.99 42.8196C301.695 43.2339 301.298 43.5372 300.797 43.7294C300.3 43.925 299.747 44.0227 299.137 44.0227ZM299.097 39.8267C299.568 39.8267 299.965 39.719 300.29 39.5036C300.615 39.2881 300.862 38.9782 301.031 38.5739C301.2 38.1695 301.284 37.6856 301.284 37.1222C301.284 36.572 301.202 36.0864 301.036 35.6655C300.87 35.2446 300.625 34.9148 300.3 34.6761C299.975 34.4375 299.574 34.3182 299.097 34.3182C298.6 34.3182 298.185 34.4441 297.854 34.696C297.526 34.9479 297.279 35.286 297.113 35.7102C296.951 36.1345 296.87 36.6051 296.87 37.1222C296.87 37.6525 296.953 38.1214 297.118 38.5291C297.287 38.9335 297.536 39.2517 297.864 39.4837C298.195 39.7124 298.606 39.8267 299.097 39.8267ZM313.254 33.3636V34.358H309.297V33.3636H313.254ZM310.45 31.5341H311.624V38.8125C311.624 39.1439 311.672 39.3925 311.768 39.5582C311.867 39.7206 311.993 39.83 312.146 39.8864C312.301 39.9394 312.465 39.9659 312.638 39.9659C312.767 39.9659 312.873 39.9593 312.956 39.946C313.039 39.9295 313.105 39.9162 313.155 39.9062L313.393 40.9602C313.314 40.9901 313.203 41.0199 313.06 41.0497C312.918 41.0829 312.737 41.0994 312.518 41.0994C312.187 41.0994 311.862 41.0282 311.544 40.8857C311.229 40.7431 310.967 40.526 310.759 40.2344C310.553 39.9427 310.45 39.5748 310.45 39.1307V31.5341ZM318.139 41.1591C317.403 41.1591 316.768 40.9967 316.235 40.6719C315.704 40.3438 315.295 39.8864 315.007 39.2997C314.722 38.7098 314.579 38.0237 314.579 37.2415C314.579 36.4593 314.722 35.7699 315.007 35.1733C315.295 34.5734 315.696 34.1061 316.21 33.7713C316.727 33.4332 317.33 33.2642 318.02 33.2642C318.417 33.2642 318.81 33.3305 319.198 33.4631C319.586 33.5956 319.939 33.8111 320.257 34.1094C320.575 34.4044 320.828 34.7955 321.017 35.2827C321.206 35.7699 321.301 36.3698 321.301 37.0824V37.5795H315.414V36.5653H320.108C320.108 36.1345 320.021 35.75 319.849 35.4119C319.68 35.0739 319.438 34.8071 319.123 34.6115C318.812 34.416 318.444 34.3182 318.02 34.3182C317.552 34.3182 317.148 34.4342 316.806 34.6662C316.468 34.8949 316.208 35.1932 316.026 35.5611C315.844 35.929 315.752 36.3234 315.752 36.7443V37.4205C315.752 37.9972 315.852 38.486 316.051 38.8871C316.253 39.2848 316.533 39.5881 316.891 39.7969C317.249 40.0024 317.665 40.1051 318.139 40.1051C318.447 40.1051 318.725 40.062 318.974 39.9759C319.226 39.8864 319.443 39.7538 319.625 39.5781C319.808 39.3991 319.949 39.1771 320.048 38.9119L321.181 39.2301C321.062 39.6146 320.862 39.9527 320.58 40.2443C320.298 40.5327 319.95 40.758 319.536 40.9205C319.122 41.0795 318.656 41.1591 318.139 41.1591ZM324.259 30.8182V41H323.086V30.8182H324.259ZM327.581 30.8182V41H326.408V30.8182H327.581ZM334.543 37.8778V33.3636H335.716V41H334.543V39.7074H334.463C334.284 40.0952 334.006 40.425 333.628 40.6967C333.25 40.9652 332.773 41.0994 332.196 41.0994C331.719 41.0994 331.295 40.995 330.923 40.7862C330.552 40.5741 330.26 40.2559 330.048 39.8317C329.836 39.4041 329.73 38.8655 329.73 38.2159V33.3636H330.903V38.1364C330.903 38.6932 331.059 39.1373 331.371 39.4688C331.686 39.8002 332.087 39.9659 332.574 39.9659C332.866 39.9659 333.162 39.8913 333.464 39.7422C333.769 39.593 334.024 39.3643 334.229 39.0561C334.438 38.7479 334.543 38.3551 334.543 37.8778ZM343.274 35.0739L342.22 35.3722C342.154 35.1965 342.056 35.0258 341.927 34.8601C341.801 34.6911 341.628 34.5518 341.41 34.4425C341.191 34.3331 340.911 34.2784 340.569 34.2784C340.102 34.2784 339.713 34.3861 339.401 34.6016C339.093 34.8137 338.939 35.0838 338.939 35.4119C338.939 35.7036 339.045 35.9339 339.257 36.103C339.469 36.272 339.8 36.4129 340.251 36.5256L341.385 36.804C342.068 36.9697 342.576 37.2232 342.911 37.5646C343.246 37.9027 343.413 38.3385 343.413 38.8722C343.413 39.3097 343.287 39.7008 343.035 40.0455C342.787 40.3902 342.439 40.6619 341.991 40.8608C341.544 41.0597 341.023 41.1591 340.43 41.1591C339.651 41.1591 339.007 40.9901 338.496 40.652C337.986 40.3139 337.663 39.8201 337.527 39.1705L338.64 38.892C338.747 39.303 338.947 39.6113 339.242 39.8168C339.54 40.0223 339.93 40.125 340.41 40.125C340.957 40.125 341.391 40.009 341.713 39.777C342.038 39.5417 342.2 39.2599 342.2 38.9318C342.2 38.6667 342.107 38.4446 341.922 38.2656C341.736 38.0833 341.451 37.9474 341.067 37.858L339.794 37.5597C339.095 37.3939 338.581 37.1371 338.253 36.7891C337.928 36.4377 337.765 35.9986 337.765 35.4716C337.765 35.0407 337.886 34.6596 338.128 34.3281C338.374 33.9967 338.707 33.7365 339.128 33.5476C339.552 33.3587 340.032 33.2642 340.569 33.2642C341.325 33.2642 341.918 33.4299 342.349 33.7614C342.783 34.0928 343.092 34.5303 343.274 35.0739ZM356.771 33.3636L353.947 41H352.754L349.93 33.3636H351.203L353.311 39.4489H353.391L355.499 33.3636H356.771ZM358.32 41V33.3636H359.493V41H358.32ZM358.917 32.0909C358.688 32.0909 358.491 32.013 358.325 31.8572C358.163 31.7015 358.081 31.5142 358.081 31.2955C358.081 31.0767 358.163 30.8894 358.325 30.7337C358.491 30.5779 358.688 30.5 358.917 30.5C359.145 30.5 359.341 30.5779 359.503 30.7337C359.669 30.8894 359.752 31.0767 359.752 31.2955C359.752 31.5142 359.669 31.7015 359.503 31.8572C359.341 32.013 359.145 32.0909 358.917 32.0909ZM364.963 33.3636V34.358H361.006V33.3636H364.963ZM362.159 31.5341H363.333V38.8125C363.333 39.1439 363.381 39.3925 363.477 39.5582C363.576 39.7206 363.702 39.83 363.855 39.8864C364.01 39.9394 364.174 39.9659 364.347 39.9659C364.476 39.9659 364.582 39.9593 364.665 39.946C364.748 39.9295 364.814 39.9162 364.864 39.9062L365.102 40.9602C365.023 40.9901 364.912 41.0199 364.769 41.0497C364.627 41.0829 364.446 41.0994 364.227 41.0994C363.896 41.0994 363.571 41.0282 363.253 40.8857C362.938 40.7431 362.676 40.526 362.468 40.2344C362.262 39.9427 362.159 39.5748 362.159 39.1307V31.5341ZM368.975 41.179C368.491 41.179 368.052 41.0878 367.658 40.9055C367.263 40.7199 366.95 40.4531 366.718 40.1051C366.486 39.7538 366.37 39.3295 366.37 38.8324C366.37 38.3949 366.456 38.0402 366.629 37.7685C366.801 37.4934 367.031 37.2779 367.32 37.1222C367.608 36.9664 367.926 36.8504 368.274 36.7741C368.626 36.6946 368.979 36.6316 369.333 36.5852C369.797 36.5256 370.173 36.4808 370.462 36.451C370.753 36.4179 370.966 36.3632 371.098 36.2869C371.234 36.2107 371.302 36.0781 371.302 35.8892V35.8494C371.302 35.3589 371.168 34.9777 370.899 34.706C370.634 34.4342 370.231 34.2983 369.691 34.2983C369.131 34.2983 368.692 34.4209 368.374 34.6662C368.056 34.9115 367.832 35.1733 367.703 35.4517L366.589 35.054C366.788 34.59 367.053 34.2287 367.384 33.9702C367.719 33.7083 368.084 33.526 368.478 33.4233C368.876 33.3172 369.267 33.2642 369.651 33.2642C369.897 33.2642 370.178 33.294 370.497 33.3537C370.818 33.41 371.128 33.5277 371.426 33.7067C371.728 33.8857 371.978 34.1558 372.177 34.517C372.376 34.8783 372.475 35.3622 372.475 35.9688V41H371.302V39.9659H371.242C371.163 40.1316 371.03 40.3089 370.845 40.4979C370.659 40.6868 370.412 40.8475 370.104 40.9801C369.796 41.1127 369.419 41.179 368.975 41.179ZM369.154 40.125C369.618 40.125 370.009 40.0339 370.328 39.8516C370.649 39.6693 370.891 39.4339 371.053 39.1456C371.219 38.8572 371.302 38.554 371.302 38.2358V37.1619C371.252 37.2216 371.143 37.2763 370.974 37.326C370.808 37.3724 370.616 37.4138 370.397 37.4503C370.182 37.4834 369.971 37.5133 369.766 37.5398C369.564 37.563 369.4 37.5829 369.274 37.5994C368.969 37.6392 368.684 37.7038 368.419 37.7933C368.157 37.8795 367.945 38.0104 367.782 38.1861C367.623 38.3584 367.544 38.5937 367.544 38.892C367.544 39.2997 367.694 39.608 367.996 39.8168C368.301 40.0223 368.687 40.125 369.154 40.125ZM377.819 41.1591C377.083 41.1591 376.448 40.9967 375.914 40.6719C375.384 40.3438 374.975 39.8864 374.686 39.2997C374.401 38.7098 374.259 38.0237 374.259 37.2415C374.259 36.4593 374.401 35.7699 374.686 35.1733C374.975 34.5734 375.376 34.1061 375.89 33.7713C376.407 33.4332 377.01 33.2642 377.699 33.2642C378.097 33.2642 378.49 33.3305 378.877 33.4631C379.265 33.5956 379.618 33.8111 379.936 34.1094C380.255 34.4044 380.508 34.7955 380.697 35.2827C380.886 35.7699 380.98 36.3698 380.98 37.0824V37.5795H375.094V36.5653H379.787C379.787 36.1345 379.701 35.75 379.529 35.4119C379.36 35.0739 379.118 34.8071 378.803 34.6115C378.491 34.416 378.123 34.3182 377.699 34.3182C377.232 34.3182 376.828 34.4342 376.486 34.6662C376.148 34.8949 375.888 35.1932 375.706 35.5611C375.523 35.929 375.432 36.3234 375.432 36.7443V37.4205C375.432 37.9972 375.532 38.486 375.73 38.8871C375.933 39.2848 376.213 39.5881 376.571 39.7969C376.929 40.0024 377.345 40.1051 377.819 40.1051C378.127 40.1051 378.405 40.062 378.654 39.9759C378.906 39.8864 379.123 39.7538 379.305 39.5781C379.487 39.3991 379.628 39.1771 379.728 38.9119L380.861 39.2301C380.742 39.6146 380.541 39.9527 380.26 40.2443C379.978 40.5327 379.63 40.758 379.216 40.9205C378.801 41.0795 378.336 41.1591 377.819 41.1591ZM393.323 43.8636V39.8267H393.224C393.138 39.9659 393.015 40.1416 392.856 40.3537C392.697 40.5625 392.47 40.7498 392.175 40.9155C391.88 41.0779 391.487 41.1591 390.996 41.1591C390.36 41.1591 389.798 40.9983 389.311 40.6768C388.824 40.352 388.443 39.8946 388.168 39.3047C387.893 38.7114 387.755 38.0104 387.755 37.2017C387.755 36.3996 387.893 35.7036 388.168 35.1136C388.443 34.5237 388.826 34.0679 389.316 33.7464C389.807 33.425 390.373 33.2642 391.016 33.2642C391.513 33.2642 391.906 33.3471 392.195 33.5128C392.486 33.6752 392.708 33.8608 392.861 34.0696C393.017 34.2751 393.138 34.4441 393.224 34.5767H393.363V33.3636H394.496V43.8636H393.323ZM391.156 40.1051C391.626 40.1051 392.024 39.9825 392.349 39.7372C392.674 39.4886 392.92 39.1456 393.089 38.7081C393.259 38.2673 393.343 37.7585 393.343 37.1818C393.343 36.6117 393.26 36.1129 393.094 35.6854C392.929 35.2545 392.683 34.9197 392.359 34.6811C392.034 34.4392 391.633 34.3182 391.156 34.3182C390.658 34.3182 390.244 34.4458 389.913 34.701C389.585 34.9529 389.338 35.2959 389.172 35.7301C389.009 36.161 388.928 36.6449 388.928 37.1818C388.928 37.7254 389.011 38.2192 389.177 38.6634C389.346 39.1042 389.594 39.4555 389.923 39.7173C390.254 39.9759 390.665 40.1051 391.156 40.1051ZM401.457 37.8778V33.3636H402.63V41H401.457V39.7074H401.377C401.198 40.0952 400.92 40.425 400.542 40.6967C400.164 40.9652 399.687 41.0994 399.11 41.0994C398.633 41.0994 398.209 40.995 397.837 40.7862C397.466 40.5741 397.174 40.2559 396.962 39.8317C396.75 39.4041 396.644 38.8655 396.644 38.2159V33.3636H397.817V38.1364C397.817 38.6932 397.973 39.1373 398.285 39.4688C398.6 39.8002 399.001 39.9659 399.488 39.9659C399.78 39.9659 400.076 39.8913 400.378 39.7422C400.683 39.593 400.938 39.3643 401.143 39.0561C401.352 38.7479 401.457 38.3551 401.457 37.8778ZM404.779 41V33.3636H405.952V41H404.779ZM405.376 32.0909C405.147 32.0909 404.95 32.013 404.784 31.8572C404.622 31.7015 404.54 31.5142 404.54 31.2955C404.54 31.0767 404.622 30.8894 404.784 30.7337C404.95 30.5779 405.147 30.5 405.376 30.5C405.604 30.5 405.8 30.5779 405.962 30.7337C406.128 30.8894 406.211 31.0767 406.211 31.2955C406.211 31.5142 406.128 31.7015 405.962 31.8572C405.8 32.013 405.604 32.0909 405.376 32.0909ZM413.51 35.0739L412.456 35.3722C412.39 35.1965 412.292 35.0258 412.163 34.8601C412.037 34.6911 411.865 34.5518 411.646 34.4425C411.427 34.3331 411.147 34.2784 410.806 34.2784C410.338 34.2784 409.949 34.3861 409.637 34.6016C409.329 34.8137 409.175 35.0838 409.175 35.4119C409.175 35.7036 409.281 35.9339 409.493 36.103C409.705 36.272 410.037 36.4129 410.488 36.5256L411.621 36.804C412.304 36.9697 412.813 37.2232 413.147 37.5646C413.482 37.9027 413.65 38.3385 413.65 38.8722C413.65 39.3097 413.524 39.7008 413.272 40.0455C413.023 40.3902 412.675 40.6619 412.228 40.8608C411.78 41.0597 411.26 41.1591 410.667 41.1591C409.888 41.1591 409.243 40.9901 408.733 40.652C408.222 40.3139 407.899 39.8201 407.763 39.1705L408.877 38.892C408.983 39.303 409.183 39.6113 409.478 39.8168C409.777 40.0223 410.166 40.125 410.647 40.125C411.194 40.125 411.628 40.009 411.949 39.777C412.274 39.5417 412.436 39.2599 412.436 38.9318C412.436 38.6667 412.344 38.4446 412.158 38.2656C411.972 38.0833 411.687 37.9474 411.303 37.858L410.03 37.5597C409.331 37.3939 408.817 37.1371 408.489 36.7891C408.164 36.4377 408.002 35.9986 408.002 35.4716C408.002 35.0407 408.123 34.6596 408.365 34.3281C408.61 33.9967 408.943 33.7365 409.364 33.5476C409.788 33.3587 410.269 33.2642 410.806 33.2642C411.561 33.2642 412.155 33.4299 412.586 33.7614C413.02 34.0928 413.328 34.5303 413.51 35.0739ZM420.763 41V33.3636H421.937V41H420.763ZM421.36 32.0909C421.131 32.0909 420.934 32.013 420.768 31.8572C420.606 31.7015 420.525 31.5142 420.525 31.2955C420.525 31.0767 420.606 30.8894 420.768 30.7337C420.934 30.5779 421.131 30.5 421.36 30.5C421.589 30.5 421.784 30.5779 421.947 30.7337C422.112 30.8894 422.195 31.0767 422.195 31.2955C422.195 31.5142 422.112 31.7015 421.947 31.8572C421.784 32.013 421.589 32.0909 421.36 32.0909ZM424.086 41V33.3636H425.219V34.5568H425.319C425.478 34.1491 425.734 33.8326 426.089 33.6072C426.444 33.3786 426.87 33.2642 427.367 33.2642C427.871 33.2642 428.29 33.3786 428.625 33.6072C428.963 33.8326 429.226 34.1491 429.415 34.5568H429.495C429.69 34.1624 429.984 33.8492 430.375 33.6172C430.766 33.3819 431.235 33.2642 431.782 33.2642C432.464 33.2642 433.023 33.478 433.457 33.9055C433.891 34.3298 434.108 34.991 434.108 35.8892V41H432.935V35.8892C432.935 35.3258 432.781 34.9231 432.473 34.6811C432.164 34.4392 431.801 34.3182 431.384 34.3182C430.847 34.3182 430.431 34.4806 430.136 34.8054C429.841 35.1269 429.694 35.5346 429.694 36.0284V41H428.5V35.7699C428.5 35.3357 428.359 34.986 428.078 34.7209C427.796 34.4524 427.433 34.3182 426.989 34.3182C426.684 34.3182 426.399 34.3994 426.134 34.5618C425.872 34.7242 425.66 34.9496 425.498 35.2379C425.338 35.523 425.259 35.8527 425.259 36.2273V41H424.086ZM436.254 43.8636V33.3636H437.387V34.5767H437.526C437.612 34.4441 437.732 34.2751 437.884 34.0696C438.04 33.8608 438.262 33.6752 438.55 33.5128C438.842 33.3471 439.237 33.2642 439.734 33.2642C440.377 33.2642 440.943 33.425 441.434 33.7464C441.924 34.0679 442.307 34.5237 442.582 35.1136C442.857 35.7036 442.995 36.3996 442.995 37.2017C442.995 38.0104 442.857 38.7114 442.582 39.3047C442.307 39.8946 441.926 40.352 441.439 40.6768C440.952 40.9983 440.39 41.1591 439.754 41.1591C439.263 41.1591 438.87 41.0779 438.575 40.9155C438.28 40.7498 438.053 40.5625 437.894 40.3537C437.735 40.1416 437.612 39.9659 437.526 39.8267H437.427V43.8636H436.254ZM437.407 37.1818C437.407 37.7585 437.491 38.2673 437.661 38.7081C437.83 39.1456 438.076 39.4886 438.401 39.7372C438.726 39.9825 439.124 40.1051 439.594 40.1051C440.085 40.1051 440.494 39.9759 440.822 39.7173C441.154 39.4555 441.402 39.1042 441.568 38.6634C441.737 38.2192 441.822 37.7254 441.822 37.1818C441.822 36.6449 441.739 36.161 441.573 35.7301C441.411 35.2959 441.164 34.9529 440.832 34.701C440.504 34.4458 440.092 34.3182 439.594 34.3182C439.117 34.3182 438.716 34.4392 438.391 34.6811C438.067 34.9197 437.821 35.2545 437.656 35.6854C437.49 36.1129 437.407 36.6117 437.407 37.1818ZM447.987 41.1591C447.251 41.1591 446.616 40.9967 446.082 40.6719C445.552 40.3438 445.143 39.8864 444.854 39.2997C444.569 38.7098 444.427 38.0237 444.427 37.2415C444.427 36.4593 444.569 35.7699 444.854 35.1733C445.143 34.5734 445.544 34.1061 446.058 33.7713C446.575 33.4332 447.178 33.2642 447.867 33.2642C448.265 33.2642 448.658 33.3305 449.045 33.4631C449.433 33.5956 449.786 33.8111 450.104 34.1094C450.423 34.4044 450.676 34.7955 450.865 35.2827C451.054 35.7699 451.148 36.3698 451.148 37.0824V37.5795H445.262V36.5653H449.955C449.955 36.1345 449.869 35.75 449.697 35.4119C449.528 35.0739 449.286 34.8071 448.971 34.6115C448.659 34.416 448.291 34.3182 447.867 34.3182C447.4 34.3182 446.996 34.4342 446.654 34.6662C446.316 34.8949 446.056 35.1932 445.874 35.5611C445.691 35.929 445.6 36.3234 445.6 36.7443V37.4205C445.6 37.9972 445.7 38.486 445.898 38.8871C446.101 39.2848 446.381 39.5881 446.739 39.7969C447.097 40.0024 447.513 40.1051 447.987 40.1051C448.295 40.1051 448.573 40.062 448.822 39.9759C449.074 39.8864 449.291 39.7538 449.473 39.5781C449.655 39.3991 449.796 39.1771 449.896 38.9119L451.029 39.2301C450.91 39.6146 450.709 39.9527 450.428 40.2443C450.146 40.5327 449.798 40.758 449.384 40.9205C448.969 41.0795 448.504 41.1591 447.987 41.1591ZM452.933 41V33.3636H454.067V34.517H454.146C454.286 34.1392 454.537 33.8326 454.902 33.5973C455.267 33.362 455.678 33.2443 456.135 33.2443C456.221 33.2443 456.329 33.246 456.458 33.2493C456.587 33.2526 456.685 33.2576 456.751 33.2642V34.4574C456.712 34.4474 456.621 34.4325 456.478 34.4126C456.339 34.3894 456.191 34.3778 456.036 34.3778C455.664 34.3778 455.333 34.4557 455.041 34.6115C454.753 34.764 454.524 34.9761 454.355 35.2479C454.189 35.5163 454.107 35.8229 454.107 36.1676V41H452.933ZM460.793 41.1591C460.157 41.1591 459.595 40.9983 459.108 40.6768C458.621 40.352 458.24 39.8946 457.964 39.3047C457.689 38.7114 457.552 38.0104 457.552 37.2017C457.552 36.3996 457.689 35.7036 457.964 35.1136C458.24 34.5237 458.622 34.0679 459.113 33.7464C459.603 33.425 460.17 33.2642 460.813 33.2642C461.31 33.2642 461.703 33.3471 461.991 33.5128C462.283 33.6752 462.505 33.8608 462.658 34.0696C462.813 34.2751 462.934 34.4441 463.021 34.5767H463.12V30.8182H464.293V41H463.16V39.8267H463.021C462.934 39.9659 462.812 40.1416 462.653 40.3537C462.494 40.5625 462.267 40.7498 461.972 40.9155C461.677 41.0779 461.284 41.1591 460.793 41.1591ZM460.952 40.1051C461.423 40.1051 461.821 39.9825 462.146 39.7372C462.47 39.4886 462.717 39.1456 462.886 38.7081C463.055 38.2673 463.14 37.7585 463.14 37.1818C463.14 36.6117 463.057 36.1129 462.891 35.6854C462.726 35.2545 462.48 34.9197 462.156 34.6811C461.831 34.4392 461.43 34.3182 460.952 34.3182C460.455 34.3182 460.041 34.4458 459.71 34.701C459.381 34.9529 459.134 35.2959 458.969 35.7301C458.806 36.161 458.725 36.6449 458.725 37.1818C458.725 37.7254 458.808 38.2192 458.974 38.6634C459.143 39.1042 459.391 39.4555 459.719 39.7173C460.051 39.9759 460.462 40.1051 460.952 40.1051ZM466.605 41V33.3636H467.778V41H466.605ZM467.202 32.0909C466.973 32.0909 466.776 32.013 466.61 31.8572C466.448 31.7015 466.366 31.5142 466.366 31.2955C466.366 31.0767 466.448 30.8894 466.61 30.7337C466.776 30.5779 466.973 30.5 467.202 30.5C467.43 30.5 467.626 30.5779 467.788 30.7337C467.954 30.8894 468.037 31.0767 468.037 31.2955C468.037 31.5142 467.954 31.7015 467.788 31.8572C467.626 32.013 467.43 32.0909 467.202 32.0909ZM473.129 41.1591C472.393 41.1591 471.759 40.9967 471.225 40.6719C470.695 40.3438 470.285 39.8864 469.997 39.2997C469.712 38.7098 469.569 38.0237 469.569 37.2415C469.569 36.4593 469.712 35.7699 469.997 35.1733C470.285 34.5734 470.686 34.1061 471.2 33.7713C471.717 33.4332 472.32 33.2642 473.01 33.2642C473.407 33.2642 473.8 33.3305 474.188 33.4631C474.576 33.5956 474.929 33.8111 475.247 34.1094C475.565 34.4044 475.819 34.7955 476.008 35.2827C476.197 35.7699 476.291 36.3698 476.291 37.0824V37.5795H470.405V36.5653H475.098C475.098 36.1345 475.012 35.75 474.839 35.4119C474.67 35.0739 474.428 34.8071 474.113 34.6115C473.802 34.416 473.434 34.3182 473.01 34.3182C472.542 34.3182 472.138 34.4342 471.797 34.6662C471.459 34.8949 471.198 35.1932 471.016 35.5611C470.834 35.929 470.743 36.3234 470.743 36.7443V37.4205C470.743 37.9972 470.842 38.486 471.041 38.8871C471.243 39.2848 471.523 39.5881 471.881 39.7969C472.239 40.0024 472.655 40.1051 473.129 40.1051C473.437 40.1051 473.716 40.062 473.964 39.9759C474.216 39.8864 474.433 39.7538 474.616 39.5781C474.798 39.3991 474.939 39.1771 475.038 38.9119L476.172 39.2301C476.052 39.6146 475.852 39.9527 475.57 40.2443C475.288 40.5327 474.94 40.758 474.526 40.9205C474.112 41.0795 473.646 41.1591 473.129 41.1591ZM481.397 33.3636V34.358H477.439V33.3636H481.397ZM478.593 31.5341H479.766V38.8125C479.766 39.1439 479.814 39.3925 479.91 39.5582C480.01 39.7206 480.136 39.83 480.288 39.8864C480.444 39.9394 480.608 39.9659 480.78 39.9659C480.91 39.9659 481.016 39.9593 481.099 39.946C481.181 39.9295 481.248 39.9162 481.297 39.9062L481.536 40.9602C481.456 40.9901 481.345 41.0199 481.203 41.0497C481.06 41.0829 480.88 41.0994 480.661 41.0994C480.33 41.0994 480.005 41.0282 479.687 40.8857C479.372 40.7431 479.11 40.526 478.901 40.2344C478.696 39.9427 478.593 39.5748 478.593 39.1307V31.5341ZM490.757 41.179C490.273 41.179 489.834 41.0878 489.439 40.9055C489.045 40.7199 488.731 40.4531 488.499 40.1051C488.267 39.7538 488.151 39.3295 488.151 38.8324C488.151 38.3949 488.238 38.0402 488.41 37.7685C488.582 37.4934 488.813 37.2779 489.101 37.1222C489.389 36.9664 489.708 36.8504 490.056 36.7741C490.407 36.6946 490.76 36.6316 491.115 36.5852C491.579 36.5256 491.955 36.4808 492.243 36.451C492.535 36.4179 492.747 36.3632 492.879 36.2869C493.015 36.2107 493.083 36.0781 493.083 35.8892V35.8494C493.083 35.3589 492.949 34.9777 492.681 34.706C492.415 34.4342 492.013 34.2983 491.472 34.2983C490.912 34.2983 490.473 34.4209 490.155 34.6662C489.837 34.9115 489.613 35.1733 489.484 35.4517L488.37 35.054C488.569 34.59 488.834 34.2287 489.166 33.9702C489.5 33.7083 489.865 33.526 490.259 33.4233C490.657 33.3172 491.048 33.2642 491.433 33.2642C491.678 33.2642 491.96 33.294 492.278 33.3537C492.599 33.41 492.909 33.5277 493.208 33.7067C493.509 33.8857 493.759 34.1558 493.958 34.517C494.157 34.8783 494.257 35.3622 494.257 35.9688V41H493.083V39.9659H493.024C492.944 40.1316 492.811 40.3089 492.626 40.4979C492.44 40.6868 492.193 40.8475 491.885 40.9801C491.577 41.1127 491.201 41.179 490.757 41.179ZM490.936 40.125C491.4 40.125 491.791 40.0339 492.109 39.8516C492.43 39.6693 492.672 39.4339 492.835 39.1456C493 38.8572 493.083 38.554 493.083 38.2358V37.1619C493.034 37.2216 492.924 37.2763 492.755 37.326C492.589 37.3724 492.397 37.4138 492.178 37.4503C491.963 37.4834 491.753 37.5133 491.547 37.5398C491.345 37.563 491.181 37.5829 491.055 37.5994C490.75 37.6392 490.465 37.7038 490.2 37.7933C489.938 37.8795 489.726 38.0104 489.563 38.1861C489.404 38.3584 489.325 38.5937 489.325 38.892C489.325 39.2997 489.476 39.608 489.777 39.8168C490.082 40.0223 490.468 40.125 490.936 40.125ZM499.5 41.1591C498.784 41.1591 498.168 40.9901 497.651 40.652C497.134 40.3139 496.736 39.8482 496.458 39.255C496.179 38.6617 496.04 37.9839 496.04 37.2216C496.04 36.446 496.183 35.7616 496.468 35.1683C496.756 34.5717 497.157 34.1061 497.671 33.7713C498.188 33.4332 498.791 33.2642 499.48 33.2642C500.017 33.2642 500.501 33.3636 500.932 33.5625C501.363 33.7614 501.716 34.0398 501.991 34.3977C502.266 34.7557 502.437 35.1733 502.503 35.6506H501.33C501.24 35.3026 501.042 34.9943 500.733 34.7259C500.428 34.4541 500.017 34.3182 499.5 34.3182C499.043 34.3182 498.642 34.4375 498.297 34.6761C497.956 34.9115 497.689 35.2446 497.497 35.6754C497.308 36.103 497.213 36.6051 497.213 37.1818C497.213 37.7718 497.306 38.2855 497.492 38.723C497.681 39.1605 497.946 39.5002 498.287 39.7422C498.632 39.9841 499.036 40.1051 499.5 40.1051C499.805 40.1051 500.082 40.0521 500.331 39.946C500.579 39.84 500.79 39.6875 500.962 39.4886C501.134 39.2898 501.257 39.0511 501.33 38.7727H502.503C502.437 39.2235 502.273 39.6295 502.011 39.9908C501.752 40.3487 501.409 40.6338 500.982 40.8459C500.558 41.0547 500.064 41.1591 499.5 41.1591ZM505.074 41.0795C504.828 41.0795 504.618 40.9917 504.442 40.8161C504.266 40.6404 504.179 40.4299 504.179 40.1847C504.179 39.9394 504.266 39.7289 504.442 39.5533C504.618 39.3776 504.828 39.2898 505.074 39.2898C505.319 39.2898 505.529 39.3776 505.705 39.5533C505.881 39.7289 505.968 39.9394 505.968 40.1847C505.968 40.3471 505.927 40.4962 505.844 40.6321C505.765 40.768 505.657 40.8774 505.521 40.9602C505.388 41.0398 505.239 41.0795 505.074 41.0795ZM187.233 58V47.8182H193.378V48.9119H188.466V52.3523H193.06V53.446H188.466V56.9062H193.457V58H187.233ZM200.85 52.0739L199.796 52.3722C199.73 52.1965 199.632 52.0258 199.503 51.8601C199.377 51.6911 199.205 51.5518 198.986 51.4425C198.767 51.3331 198.487 51.2784 198.146 51.2784C197.678 51.2784 197.289 51.3861 196.977 51.6016C196.669 51.8137 196.515 52.0838 196.515 52.4119C196.515 52.7036 196.621 52.9339 196.833 53.103C197.045 53.272 197.377 53.4129 197.827 53.5256L198.961 53.804C199.644 53.9697 200.152 54.2232 200.487 54.5646C200.822 54.9027 200.989 55.3385 200.989 55.8722C200.989 56.3097 200.863 56.7008 200.612 57.0455C200.363 57.3902 200.015 57.6619 199.567 57.8608C199.12 58.0597 198.6 58.1591 198.006 58.1591C197.228 58.1591 196.583 57.9901 196.072 57.652C195.562 57.3139 195.239 56.8201 195.103 56.1705L196.217 55.892C196.323 56.303 196.523 56.6113 196.818 56.8168C197.116 57.0223 197.506 57.125 197.987 57.125C198.533 57.125 198.968 57.009 199.289 56.777C199.614 56.5417 199.776 56.2599 199.776 55.9318C199.776 55.6667 199.683 55.4446 199.498 55.2656C199.312 55.0833 199.027 54.9474 198.643 54.858L197.37 54.5597C196.671 54.3939 196.157 54.1371 195.829 53.7891C195.504 53.4377 195.342 52.9986 195.342 52.4716C195.342 52.0407 195.463 51.6596 195.705 51.3281C195.95 50.9967 196.283 50.7365 196.704 50.5476C197.128 50.3587 197.609 50.2642 198.146 50.2642C198.901 50.2642 199.495 50.4299 199.925 50.7614C200.36 51.0928 200.668 51.5303 200.85 52.0739ZM206.077 50.3636V51.358H202.119V50.3636H206.077ZM203.273 48.5341H204.446V55.8125C204.446 56.1439 204.494 56.3925 204.59 56.5582C204.689 56.7206 204.815 56.83 204.968 56.8864C205.124 56.9394 205.288 56.9659 205.46 56.9659C205.589 56.9659 205.695 56.9593 205.778 56.946C205.861 56.9295 205.927 56.9162 205.977 56.9062L206.216 57.9602C206.136 57.9901 206.025 58.0199 205.883 58.0497C205.74 58.0829 205.559 58.0994 205.341 58.0994C205.009 58.0994 204.684 58.0282 204.366 57.8857C204.051 57.7431 203.79 57.526 203.581 57.2344C203.375 56.9427 203.273 56.5748 203.273 56.1307V48.5341ZM214.981 58.1591C214.245 58.1591 213.61 57.9967 213.077 57.6719C212.546 57.3438 212.137 56.8864 211.849 56.2997C211.564 55.7098 211.421 55.0237 211.421 54.2415C211.421 53.4593 211.564 52.7699 211.849 52.1733C212.137 51.5734 212.538 51.1061 213.052 50.7713C213.569 50.4332 214.172 50.2642 214.861 50.2642C215.259 50.2642 215.652 50.3305 216.04 50.4631C216.427 50.5956 216.78 50.8111 217.099 51.1094C217.417 51.4044 217.67 51.7955 217.859 52.2827C218.048 52.7699 218.143 53.3698 218.143 54.0824V54.5795H212.256V53.5653H216.949C216.949 53.1345 216.863 52.75 216.691 52.4119C216.522 52.0739 216.28 51.8071 215.965 51.6115C215.653 51.416 215.286 51.3182 214.861 51.3182C214.394 51.3182 213.99 51.4342 213.648 51.6662C213.31 51.8949 213.05 52.1932 212.868 52.5611C212.685 52.929 212.594 53.3234 212.594 53.7443V54.4205C212.594 54.9972 212.694 55.486 212.893 55.8871C213.095 56.2848 213.375 56.5881 213.733 56.7969C214.091 57.0024 214.507 57.1051 214.981 57.1051C215.289 57.1051 215.567 57.062 215.816 56.9759C216.068 56.8864 216.285 56.7538 216.467 56.5781C216.649 56.3991 216.79 56.1771 216.89 55.9119L218.023 56.2301C217.904 56.6146 217.703 56.9527 217.422 57.2443C217.14 57.5327 216.792 57.758 216.378 57.9205C215.963 58.0795 215.498 58.1591 214.981 58.1591ZM224.74 54.8778V50.3636H225.913V58H224.74V56.7074H224.66C224.481 57.0952 224.203 57.425 223.825 57.6967C223.447 57.9652 222.97 58.0994 222.393 58.0994C221.916 58.0994 221.492 57.995 221.121 57.7862C220.749 57.5741 220.458 57.2559 220.246 56.8317C220.033 56.4041 219.927 55.8655 219.927 55.2159V50.3636H221.101V55.1364C221.101 55.6932 221.256 56.1373 221.568 56.4688C221.883 56.8002 222.284 56.9659 222.771 56.9659C223.063 56.9659 223.359 56.8913 223.661 56.7422C223.966 56.593 224.221 56.3643 224.427 56.0561C224.635 55.7479 224.74 55.3551 224.74 54.8778ZM234.247 58.179C233.763 58.179 233.324 58.0878 232.929 57.9055C232.535 57.7199 232.222 57.4531 231.99 57.1051C231.758 56.7538 231.642 56.3295 231.642 55.8324C231.642 55.3949 231.728 55.0402 231.9 54.7685C232.073 54.4934 232.303 54.2779 232.591 54.1222C232.88 53.9664 233.198 53.8504 233.546 53.7741C233.897 53.6946 234.25 53.6316 234.605 53.5852C235.069 53.5256 235.445 53.4808 235.733 53.451C236.025 53.4179 236.237 53.3632 236.37 53.2869C236.506 53.2107 236.574 53.0781 236.574 52.8892V52.8494C236.574 52.3589 236.439 51.9777 236.171 51.706C235.906 51.4342 235.503 51.2983 234.963 51.2983C234.403 51.2983 233.963 51.4209 233.645 51.6662C233.327 51.9115 233.103 52.1733 232.974 52.4517L231.86 52.054C232.059 51.59 232.324 51.2287 232.656 50.9702C232.991 50.7083 233.355 50.526 233.75 50.4233C234.147 50.3172 234.538 50.2642 234.923 50.2642C235.168 50.2642 235.45 50.294 235.768 50.3537C236.09 50.41 236.4 50.5277 236.698 50.7067C236.999 50.8857 237.25 51.1558 237.449 51.517C237.647 51.8783 237.747 52.3622 237.747 52.9688V58H236.574V56.9659H236.514C236.434 57.1316 236.302 57.3089 236.116 57.4979C235.931 57.6868 235.684 57.8475 235.375 57.9801C235.067 58.1127 234.691 58.179 234.247 58.179ZM234.426 57.125C234.89 57.125 235.281 57.0339 235.599 56.8516C235.921 56.6693 236.163 56.4339 236.325 56.1456C236.491 55.8572 236.574 55.554 236.574 55.2358V54.1619C236.524 54.2216 236.414 54.2763 236.245 54.326C236.08 54.3724 235.887 54.4138 235.669 54.4503C235.453 54.4834 235.243 54.5133 235.037 54.5398C234.835 54.563 234.671 54.5829 234.545 54.5994C234.24 54.6392 233.955 54.7038 233.69 54.7933C233.428 54.8795 233.216 55.0104 233.054 55.1861C232.895 55.3584 232.815 55.5937 232.815 55.892C232.815 56.2997 232.966 56.608 233.267 56.8168C233.572 57.0223 233.958 57.125 234.426 57.125ZM239.888 58V50.3636H241.022V51.5568H241.121C241.28 51.1491 241.537 50.8326 241.892 50.6072C242.247 50.3786 242.672 50.2642 243.17 50.2642C243.673 50.2642 244.093 50.3786 244.427 50.6072C244.765 50.8326 245.029 51.1491 245.218 51.5568H245.297C245.493 51.1624 245.786 50.8492 246.177 50.6172C246.568 50.3819 247.037 50.2642 247.584 50.2642C248.267 50.2642 248.826 50.478 249.26 50.9055C249.694 51.3298 249.911 51.991 249.911 52.8892V58H248.738V52.8892C248.738 52.3258 248.584 51.9231 248.275 51.6811C247.967 51.4392 247.604 51.3182 247.187 51.3182C246.65 51.3182 246.234 51.4806 245.939 51.8054C245.644 52.1269 245.496 52.5346 245.496 53.0284V58H244.303V52.7699C244.303 52.3357 244.162 51.986 243.881 51.7209C243.599 51.4524 243.236 51.3182 242.792 51.3182C242.487 51.3182 242.202 51.3994 241.937 51.5618C241.675 51.7242 241.463 51.9496 241.3 52.2379C241.141 52.523 241.062 52.8527 241.062 53.2273V58H239.888ZM255.258 58.1591C254.522 58.1591 253.887 57.9967 253.354 57.6719C252.824 57.3438 252.414 56.8864 252.126 56.2997C251.841 55.7098 251.698 55.0237 251.698 54.2415C251.698 53.4593 251.841 52.7699 252.126 52.1733C252.414 51.5734 252.815 51.1061 253.329 50.7713C253.846 50.4332 254.449 50.2642 255.139 50.2642C255.536 50.2642 255.929 50.3305 256.317 50.4631C256.705 50.5956 257.058 50.8111 257.376 51.1094C257.694 51.4044 257.948 51.7955 258.137 52.2827C258.325 52.7699 258.42 53.3698 258.42 54.0824V54.5795H252.534V53.5653H257.227C257.227 53.1345 257.141 52.75 256.968 52.4119C256.799 52.0739 256.557 51.8071 256.242 51.6115C255.931 51.416 255.563 51.3182 255.139 51.3182C254.671 51.3182 254.267 51.4342 253.926 51.6662C253.588 51.8949 253.327 52.1932 253.145 52.5611C252.963 52.929 252.872 53.3234 252.872 53.7443V54.4205C252.872 54.9972 252.971 55.486 253.17 55.8871C253.372 56.2848 253.652 56.5881 254.01 56.7969C254.368 57.0024 254.784 57.1051 255.258 57.1051C255.566 57.1051 255.845 57.062 256.093 56.9759C256.345 56.8864 256.562 56.7538 256.744 56.5781C256.927 56.3991 257.068 56.1771 257.167 55.9119L258.301 56.2301C258.181 56.6146 257.981 56.9527 257.699 57.2443C257.417 57.5327 257.069 57.758 256.655 57.9205C256.241 58.0795 255.775 58.1591 255.258 58.1591ZM263.526 50.3636V51.358H259.568V50.3636H263.526ZM260.722 48.5341H261.895V55.8125C261.895 56.1439 261.943 56.3925 262.039 56.5582C262.139 56.7206 262.265 56.83 262.417 56.8864C262.573 56.9394 262.737 56.9659 262.909 56.9659C263.039 56.9659 263.145 56.9593 263.227 56.946C263.31 56.9295 263.377 56.9162 263.426 56.9062L263.665 57.9602C263.585 57.9901 263.474 58.0199 263.332 58.0497C263.189 58.0829 263.009 58.0994 262.79 58.0994C262.459 58.0994 262.134 58.0282 261.816 57.8857C261.501 57.7431 261.239 57.526 261.03 57.2344C260.825 56.9427 260.722 56.5748 260.722 56.1307V48.5341ZM272.43 58.1591C271.694 58.1591 271.059 57.9967 270.526 57.6719C269.995 57.3438 269.586 56.8864 269.298 56.2997C269.013 55.7098 268.87 55.0237 268.87 54.2415C268.87 53.4593 269.013 52.7699 269.298 52.1733C269.586 51.5734 269.987 51.1061 270.501 50.7713C271.018 50.4332 271.621 50.2642 272.311 50.2642C272.708 50.2642 273.101 50.3305 273.489 50.4631C273.877 50.5956 274.23 50.8111 274.548 51.1094C274.866 51.4044 275.119 51.7955 275.308 52.2827C275.497 52.7699 275.592 53.3698 275.592 54.0824V54.5795H269.705V53.5653H274.399C274.399 53.1345 274.312 52.75 274.14 52.4119C273.971 52.0739 273.729 51.8071 273.414 51.6115C273.103 51.416 272.735 51.3182 272.311 51.3182C271.843 51.3182 271.439 51.4342 271.097 51.6662C270.759 51.8949 270.499 52.1932 270.317 52.5611C270.135 52.929 270.044 53.3234 270.044 53.7443V54.4205C270.044 54.9972 270.143 55.486 270.342 55.8871C270.544 56.2848 270.824 56.5881 271.182 56.7969C271.54 57.0024 271.956 57.1051 272.43 57.1051C272.738 57.1051 273.017 57.062 273.265 56.9759C273.517 56.8864 273.734 56.7538 273.916 56.5781C274.099 56.3991 274.24 56.1771 274.339 55.9119L275.472 56.2301C275.353 56.6146 275.153 56.9527 274.871 57.2443C274.589 57.5327 274.241 57.758 273.827 57.9205C273.413 58.0795 272.947 58.1591 272.43 58.1591ZM282.786 52.0739L281.732 52.3722C281.665 52.1965 281.568 52.0258 281.438 51.8601C281.312 51.6911 281.14 51.5518 280.921 51.4425C280.703 51.3331 280.423 51.2784 280.081 51.2784C279.614 51.2784 279.224 51.3861 278.913 51.6016C278.605 51.8137 278.45 52.0838 278.45 52.4119C278.45 52.7036 278.557 52.9339 278.769 53.103C278.981 53.272 279.312 53.4129 279.763 53.5256L280.896 53.804C281.579 53.9697 282.088 54.2232 282.423 54.5646C282.758 54.9027 282.925 55.3385 282.925 55.8722C282.925 56.3097 282.799 56.7008 282.547 57.0455C282.298 57.3902 281.95 57.6619 281.503 57.8608C281.056 58.0597 280.535 58.1591 279.942 58.1591C279.163 58.1591 278.518 57.9901 278.008 57.652C277.498 57.3139 277.174 56.8201 277.039 56.1705L278.152 55.892C278.258 56.303 278.459 56.6113 278.754 56.8168C279.052 57.0223 279.441 57.125 279.922 57.125C280.469 57.125 280.903 57.009 281.225 56.777C281.549 56.5417 281.712 56.2599 281.712 55.9318C281.712 55.6667 281.619 55.4446 281.433 55.2656C281.248 55.0833 280.963 54.9474 280.578 54.858L279.306 54.5597C278.606 54.3939 278.093 54.1371 277.764 53.7891C277.44 53.4377 277.277 52.9986 277.277 52.4716C277.277 52.0407 277.398 51.6596 277.64 51.3281C277.885 50.9967 278.218 50.7365 278.639 50.5476C279.064 50.3587 279.544 50.2642 280.081 50.2642C280.837 50.2642 281.43 50.4299 281.861 50.7614C282.295 51.0928 282.603 51.5303 282.786 52.0739ZM288.012 50.3636V51.358H284.055V50.3636H288.012ZM285.208 48.5341H286.381V55.8125C286.381 56.1439 286.429 56.3925 286.526 56.5582C286.625 56.7206 286.751 56.83 286.903 56.8864C287.059 56.9394 287.223 56.9659 287.396 56.9659C287.525 56.9659 287.631 56.9593 287.714 56.946C287.797 56.9295 287.863 56.9162 287.913 56.9062L288.151 57.9602C288.072 57.9901 287.961 58.0199 287.818 58.0497C287.676 58.0829 287.495 58.0994 287.276 58.0994C286.945 58.0994 286.62 58.0282 286.302 57.8857C285.987 57.7431 285.725 57.526 285.516 57.2344C285.311 56.9427 285.208 56.5748 285.208 56.1307V48.5341ZM293.714 58V50.3636H294.848V51.517H294.928C295.067 51.1392 295.319 50.8326 295.683 50.5973C296.048 50.362 296.459 50.2443 296.916 50.2443C297.002 50.2443 297.11 50.246 297.239 50.2493C297.369 50.2526 297.466 50.2576 297.533 50.2642V51.4574C297.493 51.4474 297.402 51.4325 297.259 51.4126C297.12 51.3894 296.973 51.3778 296.817 51.3778C296.446 51.3778 296.114 51.4557 295.822 51.6115C295.534 51.764 295.305 51.9761 295.136 52.2479C294.971 52.5163 294.888 52.8229 294.888 53.1676V58H293.714ZM298.923 58V50.3636H300.097V58H298.923ZM299.52 49.0909C299.291 49.0909 299.094 49.013 298.928 48.8572C298.766 48.7015 298.685 48.5142 298.685 48.2955C298.685 48.0767 298.766 47.8894 298.928 47.7337C299.094 47.5779 299.291 47.5 299.52 47.5C299.749 47.5 299.944 47.5779 300.107 47.7337C300.272 47.8894 300.355 48.0767 300.355 48.2955C300.355 48.5142 300.272 48.7015 300.107 48.8572C299.944 49.013 299.749 49.0909 299.52 49.0909ZM307.655 52.0739L306.601 52.3722C306.535 52.1965 306.437 52.0258 306.308 51.8601C306.182 51.6911 306.009 51.5518 305.79 51.4425C305.572 51.3331 305.292 51.2784 304.95 51.2784C304.483 51.2784 304.094 51.3861 303.782 51.6016C303.474 51.8137 303.32 52.0838 303.32 52.4119C303.32 52.7036 303.426 52.9339 303.638 53.103C303.85 53.272 304.181 53.4129 304.632 53.5256L305.766 53.804C306.448 53.9697 306.957 54.2232 307.292 54.5646C307.627 54.9027 307.794 55.3385 307.794 55.8722C307.794 56.3097 307.668 56.7008 307.416 57.0455C307.168 57.3902 306.82 57.6619 306.372 57.8608C305.925 58.0597 305.404 58.1591 304.811 58.1591C304.032 58.1591 303.388 57.9901 302.877 57.652C302.367 57.3139 302.044 56.8201 301.908 56.1705L303.021 55.892C303.127 56.303 303.328 56.6113 303.623 56.8168C303.921 57.0223 304.311 57.125 304.791 57.125C305.338 57.125 305.772 57.009 306.094 56.777C306.419 56.5417 306.581 56.2599 306.581 55.9318C306.581 55.6667 306.488 55.4446 306.303 55.2656C306.117 55.0833 305.832 54.9474 305.447 54.858L304.175 54.5597C303.475 54.3939 302.962 54.1371 302.634 53.7891C302.309 53.4377 302.146 52.9986 302.146 52.4716C302.146 52.0407 302.267 51.6596 302.509 51.3281C302.754 50.9967 303.088 50.7365 303.509 50.5476C303.933 50.3587 304.413 50.2642 304.95 50.2642C305.706 50.2642 306.299 50.4299 306.73 50.7614C307.164 51.0928 307.473 51.5303 307.655 52.0739ZM314.373 54.8778V50.3636H315.546V58H314.373V56.7074H314.293C314.114 57.0952 313.836 57.425 313.458 57.6967C313.08 57.9652 312.603 58.0994 312.026 58.0994C311.549 58.0994 311.125 57.995 310.753 57.7862C310.382 57.5741 310.09 57.2559 309.878 56.8317C309.666 56.4041 309.56 55.8655 309.56 55.2159V50.3636H310.733V55.1364C310.733 55.6932 310.889 56.1373 311.201 56.4688C311.516 56.8002 311.917 56.9659 312.404 56.9659C312.696 56.9659 312.992 56.8913 313.294 56.7422C313.599 56.593 313.854 56.3643 314.059 56.0561C314.268 55.7479 314.373 55.3551 314.373 54.8778ZM323.104 52.0739L322.05 52.3722C321.984 52.1965 321.886 52.0258 321.757 51.8601C321.631 51.6911 321.458 51.5518 321.24 51.4425C321.021 51.3331 320.741 51.2784 320.4 51.2784C319.932 51.2784 319.543 51.3861 319.231 51.6016C318.923 51.8137 318.769 52.0838 318.769 52.4119C318.769 52.7036 318.875 52.9339 319.087 53.103C319.299 53.272 319.631 53.4129 320.081 53.5256L321.215 53.804C321.898 53.9697 322.406 54.2232 322.741 54.5646C323.076 54.9027 323.243 55.3385 323.243 55.8722C323.243 56.3097 323.117 56.7008 322.865 57.0455C322.617 57.3902 322.269 57.6619 321.821 57.8608C321.374 58.0597 320.854 58.1591 320.26 58.1591C319.481 58.1591 318.837 57.9901 318.326 57.652C317.816 57.3139 317.493 56.8201 317.357 56.1705L318.471 55.892C318.577 56.303 318.777 56.6113 319.072 56.8168C319.37 57.0223 319.76 57.125 320.24 57.125C320.787 57.125 321.221 57.009 321.543 56.777C321.868 56.5417 322.03 56.2599 322.03 55.9318C322.03 55.6667 321.937 55.4446 321.752 55.2656C321.566 55.0833 321.281 54.9474 320.897 54.858L319.624 54.5597C318.925 54.3939 318.411 54.1371 318.083 53.7891C317.758 53.4377 317.596 52.9986 317.596 52.4716C317.596 52.0407 317.717 51.6596 317.958 51.3281C318.204 50.9967 318.537 50.7365 318.958 50.5476C319.382 50.3587 319.863 50.2642 320.4 50.2642C321.155 50.2642 321.748 50.4299 322.179 50.7614C322.614 51.0928 322.922 51.5303 323.104 52.0739ZM325.865 58.0795C325.619 58.0795 325.409 57.9917 325.233 57.8161C325.057 57.6404 324.97 57.4299 324.97 57.1847C324.97 56.9394 325.057 56.7289 325.233 56.5533C325.409 56.3776 325.619 56.2898 325.865 56.2898C326.11 56.2898 326.32 56.3776 326.496 56.5533C326.672 56.7289 326.759 56.9394 326.759 57.1847C326.759 57.3471 326.718 57.4962 326.635 57.6321C326.556 57.768 326.448 57.8774 326.312 57.9602C326.179 58.0398 326.03 58.0795 325.865 58.0795Z" fill="#374151"/>
</svg>
