<svg width="519" height="133" viewBox="0 0 519 133" fill="none" xmlns="http://www.w3.org/2000/svg">
<mask id="path-1-inside-1_1467_17253" fill="white">
<path d="M0.5 20C0.5 8.95431 9.45431 0 20.5 0H111.257C122.303 0 131.257 8.95431 131.257 20V112.364C131.257 123.409 122.303 132.364 111.257 132.364H20.5C9.4543 132.364 0.5 123.409 0.5 112.364V20Z"/>
</mask>
<path d="M0.5 20C0.5 8.95431 9.45431 0 20.5 0H111.257C122.303 0 131.257 8.95431 131.257 20V112.364C131.257 123.409 122.303 132.364 111.257 132.364H20.5C9.4543 132.364 0.5 123.409 0.5 112.364V20Z" fill="#3B82F6"/>
<path d="M81.4154 40.7273L91.0952 50.4848L70.5747 71.2399L51.215 51.7247L21.3022 81.8763L30.9821 91.6363L51.215 71.2399L70.5747 90.7576L100.775 60.2424L110.455 70.0025V40.7273H81.4154Z" fill="white"/>
<path d="M0.5 20C0.5 8.95431 9.45431 0 20.5 0H111.257C122.303 0 131.257 8.95431 131.257 20V112.364C131.257 123.409 122.303 132.364 111.257 132.364H20.5C9.4543 132.364 0.5 123.409 0.5 112.364V20Z" stroke="black" stroke-opacity="0.15" stroke-width="42" mask="url(#path-1-inside-1_1467_17253)"/>
<path d="M153.653 58.5455V3.00826H192.228V15.157H168.547V24.7025H189.871V36.8512H168.547V58.5455H153.653Z" fill="#3B82F6"/>
<path d="M208.502 59.1963C205.877 59.1963 203.555 58.7624 201.537 57.8946C199.537 57.0088 197.966 55.671 196.823 53.8812C195.68 52.0914 195.108 49.8135 195.108 47.0475C195.108 44.7696 195.492 42.8262 196.26 41.2172C197.028 39.5901 198.099 38.2614 199.475 37.2309C200.85 36.2004 202.448 35.414 204.27 34.8716C206.109 34.3293 208.092 33.9768 210.217 33.814C212.521 33.6333 214.369 33.4163 215.762 33.1632C217.173 32.892 218.191 32.5214 218.816 32.0514C219.441 31.5633 219.754 30.9215 219.754 30.126V30.0176C219.754 28.9328 219.343 28.1012 218.521 27.5227C217.7 26.9442 216.646 26.655 215.36 26.655C213.949 26.655 212.798 26.9713 211.905 27.6041C211.029 28.2187 210.503 29.1679 210.324 30.4514H196.715C196.894 27.9205 197.689 25.5883 199.1 23.4551C200.528 21.3037 202.609 19.5863 205.341 18.3027C208.074 17.001 211.485 16.3502 215.575 16.3502C218.521 16.3502 221.164 16.7027 223.504 17.4078C225.844 18.0948 227.835 19.062 229.478 20.3094C231.121 21.5387 232.371 22.985 233.228 24.6482C234.103 26.2934 234.541 28.0832 234.541 30.0176V58.5455H220.718V52.688H220.397C219.575 54.2428 218.575 55.4992 217.396 56.4574C216.235 57.4155 214.905 58.1116 213.405 58.5455C211.922 58.9793 210.288 59.1963 208.502 59.1963ZM213.324 49.7593C214.449 49.7593 215.503 49.5243 216.485 49.0542C217.486 48.5842 218.298 47.9062 218.923 47.0204C219.548 46.1346 219.861 45.0589 219.861 43.7934V40.3223C219.468 40.485 219.048 40.6387 218.602 40.7833C218.173 40.9279 217.709 41.0635 217.209 41.1901C216.727 41.3166 216.209 41.4341 215.655 41.5426C215.119 41.6511 214.557 41.7505 213.967 41.8409C212.824 42.0217 211.887 42.32 211.154 42.7358C210.44 43.1335 209.904 43.6307 209.547 44.2273C209.208 44.8058 209.038 45.4566 209.038 46.1798C209.038 47.3368 209.44 48.2226 210.244 48.8373C211.047 49.452 212.074 49.7593 213.324 49.7593Z" fill="#3B82F6"/>
<path d="M261.43 59.3048C256.965 59.3048 253.143 58.4099 249.965 56.6201C246.786 54.8122 244.348 52.2993 242.651 49.0814C240.955 45.8453 240.106 42.094 240.106 37.8275C240.106 33.5609 240.955 29.8187 242.651 26.6007C244.348 23.3647 246.786 20.8518 249.965 19.062C253.143 17.2541 256.965 16.3502 261.43 16.3502C265.466 16.3502 268.958 17.0914 271.904 18.5739C274.869 20.0382 277.164 22.1173 278.789 24.8109C280.414 27.4866 281.236 30.6322 281.254 34.2479H267.538C267.341 32.0604 266.716 30.3972 265.663 29.2583C264.627 28.1012 263.287 27.5227 261.644 27.5227C260.359 27.5227 259.233 27.9024 258.269 28.6617C257.305 29.4029 256.555 30.5328 256.019 32.0514C255.483 33.5519 255.215 35.4411 255.215 37.719C255.215 39.9969 255.483 41.8951 256.019 43.4137C256.555 44.9143 257.305 46.0442 258.269 46.8035C259.233 47.5447 260.359 47.9153 261.644 47.9153C262.734 47.9153 263.698 47.6622 264.538 47.156C265.377 46.6317 266.056 45.8724 266.574 44.8781C267.109 43.8657 267.431 42.6364 267.538 41.1901H281.254C281.2 44.86 280.37 48.0599 278.762 50.7898C277.155 53.5015 274.878 55.5987 271.931 57.0811C269.002 58.5635 265.502 59.3048 261.43 59.3048Z" fill="#3B82F6"/>
<path d="M307.071 59.3048C302.678 59.3048 298.892 58.4551 295.713 56.7557C292.552 55.0382 290.114 52.5795 288.4 49.3797C286.703 46.1617 285.855 42.311 285.855 37.8275C285.855 33.5248 286.712 29.7645 288.426 26.5465C290.141 23.3285 292.561 20.8246 295.686 19.0349C298.811 17.2451 302.499 16.3502 306.75 16.3502C309.857 16.3502 312.67 16.8383 315.188 17.8146C317.706 18.7908 319.858 20.21 321.644 22.0721C323.43 23.9161 324.805 26.1578 325.77 28.7973C326.734 31.4367 327.216 34.4106 327.216 37.719V41.1901H290.462V32.9463H313.608C313.59 31.7531 313.286 30.7045 312.697 29.8006C312.125 28.8786 311.349 28.1645 310.366 27.6583C309.402 27.134 308.304 26.8719 307.071 26.8719C305.875 26.8719 304.776 27.134 303.776 27.6583C302.776 28.1645 301.973 28.8696 301.365 29.7735C300.776 30.6774 300.463 31.735 300.428 32.9463V41.8409C300.428 43.1787 300.705 44.3719 301.258 45.4205C301.812 46.469 302.607 47.2916 303.642 47.8882C304.678 48.4848 305.928 48.7831 307.393 48.7831C308.411 48.7831 309.339 48.6384 310.179 48.3492C311.036 48.0599 311.768 47.6441 312.375 47.1018C312.983 46.5413 313.429 45.8724 313.715 45.095H327.216C326.752 47.9876 325.654 50.5005 323.921 52.6338C322.189 54.749 319.894 56.3941 317.037 57.5692C314.197 58.7262 310.875 59.3048 307.071 59.3048Z" fill="#3B82F6"/>
<path d="M333.036 58.5455V3.00826H347.824V24.1601H348.038C348.574 22.75 349.359 21.4574 350.395 20.2823C351.431 19.0891 352.717 18.14 354.253 17.4349C355.789 16.7118 357.575 16.3502 359.611 16.3502C362.325 16.3502 364.906 17.0824 367.353 18.5467C369.817 20.0111 371.817 22.3161 373.353 25.4618C374.907 28.6074 375.684 32.6932 375.684 37.719C375.684 42.5279 374.943 46.5142 373.46 49.6779C371.996 52.8417 370.031 55.2009 367.567 56.7557C365.12 58.3104 362.432 59.0878 359.503 59.0878C357.575 59.0878 355.851 58.7714 354.333 58.1387C352.833 57.4879 351.547 56.611 350.476 55.5083C349.422 54.3874 348.609 53.1219 348.038 51.7118H347.716V58.5455H333.036ZM347.502 37.719C347.502 39.7438 347.761 41.4974 348.279 42.9799C348.815 44.4442 349.565 45.5832 350.529 46.3967C351.511 47.1922 352.681 47.5899 354.039 47.5899C355.396 47.5899 356.548 47.2012 357.494 46.4238C358.459 45.6284 359.191 44.4984 359.691 43.0341C360.209 41.5517 360.468 39.78 360.468 37.719C360.468 35.6581 360.209 33.8954 359.691 32.431C359.191 30.9486 358.459 29.8187 357.494 29.0413C356.548 28.2459 355.396 27.8481 354.039 27.8481C352.681 27.8481 351.511 28.2459 350.529 29.0413C349.565 29.8187 348.815 30.9486 348.279 32.431C347.761 33.8954 347.502 35.6581 347.502 37.719Z" fill="#3B82F6"/>
<path d="M401.696 59.3048C397.231 59.3048 393.409 58.4099 390.23 56.6201C387.051 54.8122 384.613 52.2993 382.917 49.0814C381.22 45.8453 380.372 42.094 380.372 37.8275C380.372 33.5609 381.22 29.8187 382.917 26.6007C384.613 23.3647 387.051 20.8518 390.23 19.062C393.409 17.2541 397.231 16.3502 401.696 16.3502C406.16 16.3502 409.982 17.2541 413.161 19.062C416.34 20.8518 418.778 23.3647 420.474 26.6007C422.171 29.8187 423.019 33.5609 423.019 37.8275C423.019 42.094 422.171 45.8453 420.474 49.0814C418.778 52.2993 416.34 54.8122 413.161 56.6201C409.982 58.4099 406.16 59.3048 401.696 59.3048ZM401.803 48.2407C403.053 48.2407 404.133 47.8159 405.044 46.9662C405.955 46.1165 406.66 44.9052 407.16 43.3324C407.661 41.7596 407.911 39.8884 407.911 37.719C407.911 35.5315 407.661 33.6604 407.16 32.1056C406.66 30.5328 405.955 29.3215 405.044 28.4718C404.133 27.6222 403.053 27.1973 401.803 27.1973C400.481 27.1973 399.347 27.6222 398.401 28.4718C397.454 29.3215 396.731 30.5328 396.231 32.1056C395.731 33.6604 395.481 35.5315 395.481 37.719C395.481 39.8884 395.731 41.7596 396.231 43.3324C396.731 44.9052 397.454 46.1165 398.401 46.9662C399.347 47.8159 400.481 48.2407 401.803 48.2407Z" fill="#3B82F6"/>
<path d="M448.844 59.3048C444.379 59.3048 440.557 58.4099 437.378 56.6201C434.199 54.8122 431.761 52.2993 430.065 49.0814C428.368 45.8453 427.52 42.094 427.52 37.8275C427.52 33.5609 428.368 29.8187 430.065 26.6007C431.761 23.3647 434.199 20.8518 437.378 19.062C440.557 17.2541 444.379 16.3502 448.844 16.3502C453.308 16.3502 457.13 17.2541 460.309 19.062C463.488 20.8518 465.926 23.3647 467.622 26.6007C469.319 29.8187 470.167 33.5609 470.167 37.8275C470.167 42.094 469.319 45.8453 467.622 49.0814C465.926 52.2993 463.488 54.8122 460.309 56.6201C457.13 58.4099 453.308 59.3048 448.844 59.3048ZM448.951 48.2407C450.201 48.2407 451.281 47.8159 452.192 46.9662C453.103 46.1165 453.808 44.9052 454.309 43.3324C454.809 41.7596 455.059 39.8884 455.059 37.719C455.059 35.5315 454.809 33.6604 454.309 32.1056C453.808 30.5328 453.103 29.3215 452.192 28.4718C451.281 27.6222 450.201 27.1973 448.951 27.1973C447.629 27.1973 446.495 27.6222 445.549 28.4718C444.602 29.3215 443.879 30.5328 443.379 32.1056C442.879 33.6604 442.629 35.5315 442.629 37.719C442.629 39.8884 442.879 41.7596 443.379 43.3324C443.879 44.9052 444.602 46.1165 445.549 46.9662C446.495 47.8159 447.629 48.2407 448.951 48.2407Z" fill="#3B82F6"/>
<path d="M489.455 48.6746L489.562 30.8853H491.491L501.457 16.8926H518.066L501.349 38.6952H497.17L489.455 48.6746ZM476.168 58.5455V3.00826H490.955V58.5455H476.168ZM501.564 58.5455L492.134 42.0578L501.778 31.4277L518.494 58.5455H501.564Z" fill="#3B82F6"/>
<path d="M157.403 73.0083H163.189L183.093 121.386H183.576L203.48 73.0083H209.266V128.545H204.551V83.7198H204.123L185.612 128.545H181.057L162.547 83.7198H162.118V128.545H157.403V73.0083Z" fill="#374151"/>
<path d="M234.354 129.495C231.871 129.495 229.603 129.006 227.549 128.03C225.495 127.036 223.861 125.608 222.647 123.746C221.432 121.865 220.825 119.588 220.825 116.912C220.825 114.851 221.209 113.115 221.977 111.705C222.745 110.295 223.835 109.138 225.245 108.234C226.656 107.33 228.326 106.616 230.255 106.092C232.184 105.568 234.309 105.161 236.631 104.872C238.934 104.582 240.881 104.329 242.47 104.112C244.078 103.895 245.301 103.552 246.141 103.082C246.98 102.612 247.4 101.853 247.4 100.804V99.8277C247.4 96.9894 246.56 94.7567 244.881 93.1297C243.221 91.4845 240.827 90.6619 237.702 90.6619C234.737 90.6619 232.318 91.3218 230.442 92.6415C228.585 93.9613 227.281 95.516 226.531 97.3058L222.004 95.6516C222.933 93.3737 224.218 91.5568 225.862 90.2009C227.505 88.827 229.344 87.8417 231.38 87.2451C233.416 86.6304 235.479 86.3231 237.568 86.3231C239.14 86.3231 240.774 86.531 242.47 86.9468C244.185 87.3626 245.774 88.0857 247.239 89.1162C248.703 90.1286 249.891 91.5478 250.802 93.3737C251.713 95.1816 252.168 97.4775 252.168 100.262V128.545H247.4V121.956H247.105C246.533 123.185 245.685 124.378 244.56 125.535C243.435 126.692 242.024 127.642 240.327 128.383C238.631 129.124 236.639 129.495 234.354 129.495ZM234.996 125.074C237.532 125.074 239.729 124.505 241.586 123.366C243.444 122.227 244.873 120.717 245.873 118.837C246.891 116.939 247.4 114.851 247.4 112.573V106.553C247.042 106.896 246.444 107.204 245.605 107.475C244.783 107.746 243.828 107.99 242.738 108.207C241.667 108.406 240.595 108.578 239.524 108.722C238.452 108.867 237.488 108.994 236.631 109.102C234.309 109.391 232.327 109.843 230.683 110.458C229.04 111.073 227.781 111.922 226.906 113.007C226.031 114.074 225.594 115.448 225.594 117.129C225.594 119.66 226.487 121.621 228.272 123.013C230.058 124.387 232.3 125.074 234.996 125.074Z" fill="#374151"/>
<path d="M264.852 128.545V86.8926H269.487V93.2924H269.835C270.657 91.1953 272.085 89.5049 274.121 88.2213C276.175 86.9197 278.497 86.2689 281.086 86.2689C281.479 86.2689 281.917 86.2779 282.399 86.296C282.881 86.3141 283.283 86.3321 283.604 86.3502V91.2585C283.39 91.2224 283.015 91.1681 282.479 91.0958C281.944 91.0235 281.363 90.9874 280.738 90.9874C278.595 90.9874 276.684 91.4484 275.005 92.3704C273.344 93.2743 272.032 94.5307 271.067 96.1397C270.103 97.7487 269.621 99.5837 269.621 101.645V128.545H264.852Z" fill="#374151"/>
<path d="M296.081 112.817L296.028 106.499H297.099L316.387 86.8926H322.415L303.368 106.2L302.939 106.282L296.081 112.817ZM291.742 128.545V73.0083H296.51V128.545H291.742ZM317.378 128.545L300.662 107.15L304.091 103.814L323.486 128.545H317.378Z" fill="#374151"/>
<path d="M346.317 129.413C342.477 129.413 339.155 128.509 336.351 126.701C333.547 124.876 331.378 122.354 329.842 119.136C328.324 115.9 327.565 112.175 327.565 107.963C327.565 103.769 328.324 100.045 329.842 96.7906C331.378 93.5183 333.494 90.9602 336.191 89.1162C338.905 87.2541 342.04 86.3231 345.593 86.3231C347.826 86.3231 349.978 86.7389 352.05 87.5705C354.121 88.384 355.979 89.6405 357.622 91.3399C359.282 93.0212 360.595 95.1454 361.559 97.7126C362.524 100.262 363.006 103.281 363.006 106.77V109.156H330.86V104.899H358.131C358.131 102.223 357.595 99.8187 356.523 97.6854C355.47 95.5341 353.996 93.8347 352.103 92.5873C350.228 91.3399 348.058 90.7162 345.593 90.7162C342.986 90.7162 340.691 91.4212 338.709 92.8314C336.726 94.2415 335.173 96.1036 334.048 98.4176C332.94 100.732 332.378 103.263 332.36 106.011V108.56C332.36 111.868 332.922 114.761 334.048 117.237C335.191 119.696 336.807 121.603 338.896 122.959C340.986 124.315 343.459 124.993 346.317 124.993C348.263 124.993 349.969 124.686 351.433 124.071C352.916 123.456 354.157 122.634 355.157 121.603C356.175 120.555 356.943 119.407 357.461 118.159L361.988 119.651C361.363 121.404 360.336 123.022 358.907 124.505C357.497 125.987 355.729 127.181 353.603 128.084C351.496 128.97 349.067 129.413 346.317 129.413Z" fill="#374151"/>
<path d="M389.721 86.8926V91.0958H370.085V86.8926H389.721ZM376.22 76.9132H381.015V117.671C381.015 119.407 381.309 120.772 381.899 121.766C382.488 122.742 383.256 123.438 384.203 123.854C385.149 124.252 386.158 124.451 387.23 124.451C387.855 124.451 388.391 124.415 388.837 124.342C389.284 124.252 389.676 124.161 390.016 124.071L391.034 128.437C390.569 128.618 389.998 128.78 389.319 128.925C388.641 129.088 387.801 129.169 386.801 129.169C385.051 129.169 383.363 128.78 381.738 128.003C380.131 127.226 378.809 126.069 377.773 124.532C376.738 122.995 376.22 121.088 376.22 118.81V76.9132Z" fill="#374151"/>
<path d="M416.744 129.413C412.904 129.413 409.583 128.509 406.779 126.701C403.975 124.876 401.805 122.354 400.269 119.136C398.751 115.9 397.992 112.175 397.992 107.963C397.992 103.769 398.751 100.045 400.269 96.7906C401.805 93.5183 403.921 90.9602 406.618 89.1162C409.333 87.2541 412.467 86.3231 416.021 86.3231C418.253 86.3231 420.405 86.7389 422.477 87.5705C424.549 88.384 426.406 89.6405 428.049 91.3399C429.71 93.0212 431.023 95.1454 431.987 97.7126C432.951 100.262 433.434 103.281 433.434 106.77V109.156H401.287V104.899H428.558C428.558 102.223 428.022 99.8187 426.951 97.6854C425.897 95.5341 424.424 93.8347 422.531 92.5873C420.655 91.3399 418.485 90.7162 416.021 90.7162C413.413 90.7162 411.119 91.4212 409.136 92.8314C407.154 94.2415 405.6 96.1036 404.475 98.4176C403.368 100.732 402.805 103.263 402.787 106.011V108.56C402.787 111.868 403.35 114.761 404.475 117.237C405.618 119.696 407.234 121.603 409.324 122.959C411.413 124.315 413.887 124.993 416.744 124.993C418.691 124.993 420.396 124.686 421.861 124.071C423.343 123.456 424.584 122.634 425.584 121.603C426.602 120.555 427.37 119.407 427.888 118.159L432.416 119.651C431.79 121.404 430.764 123.022 429.335 124.505C427.924 125.987 426.156 127.181 424.031 128.084C421.923 128.97 419.494 129.413 416.744 129.413Z" fill="#374151"/>
<path d="M443.941 128.545V86.8926H448.576V93.2924H448.924C449.746 91.1953 451.174 89.5049 453.21 88.2213C455.264 86.9197 457.586 86.2689 460.175 86.2689C460.568 86.2689 461.006 86.2779 461.488 86.296C461.97 86.3141 462.372 86.3321 462.693 86.3502V91.2585C462.479 91.2224 462.104 91.1681 461.568 91.0958C461.033 91.0235 460.452 90.9874 459.827 90.9874C457.684 90.9874 455.773 91.4484 454.094 92.3704C452.433 93.2743 451.121 94.5307 450.156 96.1397C449.192 97.7487 448.71 99.5837 448.71 101.645V128.545H443.941Z" fill="#374151"/>
<ellipse cx="468.209" cy="122.182" rx="7.5437" ry="7.63636" fill="#3B82F6"/>
</svg>
