<svg width="519" height="120" viewBox="0 0 519 120" fill="none" xmlns="http://www.w3.org/2000/svg">
<path d="M0.5 64.6154C0.5 28.9293 29.4293 0 65.1154 0H116.5C118.709 0 120.5 1.79086 120.5 4V116C120.5 118.209 118.709 120 116.5 120H55.8846C25.2965 120 0.5 95.2035 0.5 64.6154Z" fill="#4C6FBF"/>
<path d="M56.7083 99.5833C56.3777 99.6435 56.0389 99.6435 55.7083 99.5833C54.9868 99.3655 54.3561 98.9179 53.9123 98.3087C53.4686 97.6995 53.236 96.9619 53.25 96.2083V95.75L57 69.2917H38.9167C38.3068 69.2922 37.7086 69.1254 37.1869 68.8095C36.6653 68.4936 36.2404 68.0407 35.9583 67.5C35.6397 66.9567 35.4717 66.3382 35.4717 65.7083C35.4717 65.0785 35.6397 64.46 35.9583 63.9167L44.2917 49.375L61.375 22.2083C61.7546 21.5673 62.3405 21.0741 63.0368 20.8092C63.7331 20.5443 64.4986 20.5234 65.2083 20.75C65.9299 20.9678 66.5605 21.4154 67.0043 22.0246C67.4481 22.6339 67.6807 23.3714 67.6667 24.125V24.5833L63.9167 51.0417H82.0417C82.6515 51.0411 83.2498 51.2079 83.7714 51.5238C84.293 51.8397 84.7179 52.2927 85 52.8333C85.3186 53.3767 85.4866 53.9951 85.4866 54.625C85.4866 55.2549 85.3186 55.8733 85 56.4167L76.6667 70.9583L59.5833 98.125C59.2694 98.5942 58.8401 98.9748 58.3366 99.2302C57.8331 99.4856 57.2724 99.6072 56.7083 99.5833ZM43.5417 62.875H60.2083C60.668 62.8804 61.122 62.9764 61.5446 63.1573C61.9671 63.3382 62.3499 63.6006 62.6711 63.9295C62.9922 64.2584 63.2454 64.6473 63.4162 65.0741C63.5871 65.5008 63.6722 65.957 63.6667 66.4167V66.875L61.2083 84.125L71.625 67.4583L77.625 57.125H60.9583C60.4987 57.1196 60.0446 57.0236 59.6221 56.8427C59.1995 56.6618 58.8167 56.3994 58.4956 56.0705C58.1744 55.7416 57.9212 55.3527 57.7504 54.9259C57.5796 54.4992 57.4945 54.043 57.5 53.5833V53.125L59.9583 35.875L49.5417 52.5417L43.5417 62.875Z" fill="#B1C9EB"/>
<path d="M143.653 16.9432V13.3636H175.294V16.9432H161.466V57H157.482V16.9432H143.653ZM184.264 57V13.3636H209.577V16.9432H188.249V33.3707H208.234V36.9503H188.249V53.4205H210.003V57H184.264ZM243.582 24.2727C243.341 21.8437 242.268 19.9119 240.365 18.4773C238.462 17.0426 236.068 16.3253 233.185 16.3253C231.153 16.3253 229.364 16.6733 227.815 17.3693C226.281 18.0653 225.074 19.0312 224.193 20.267C223.327 21.4886 222.893 22.8807 222.893 24.4432C222.893 25.5938 223.142 26.6023 223.639 27.4688C224.136 28.3352 224.804 29.081 225.642 29.706C226.494 30.3168 227.432 30.8423 228.455 31.2827C229.491 31.723 230.536 32.0923 231.587 32.3906L236.189 33.7116C237.581 34.0952 238.973 34.5852 240.365 35.1818C241.757 35.7784 243.028 36.5312 244.179 37.4403C245.344 38.3352 246.274 39.4361 246.97 40.7429C247.68 42.0355 248.036 43.5909 248.036 45.4091C248.036 47.7386 247.432 49.8338 246.224 51.6946C245.017 53.5554 243.284 55.0327 241.026 56.1264C238.767 57.206 236.061 57.7457 232.908 57.7457C229.939 57.7457 227.361 57.2557 225.173 56.2756C222.986 55.2812 221.267 53.9105 220.017 52.1634C218.767 50.4162 218.064 48.392 217.908 46.0909H221.999C222.141 47.8097 222.709 49.2656 223.703 50.4588C224.697 51.652 225.99 52.5611 227.581 53.1861C229.172 53.7969 230.947 54.1023 232.908 54.1023C235.081 54.1023 237.013 53.7401 238.703 53.0156C240.408 52.277 241.743 51.2543 242.709 49.9474C243.689 48.6264 244.179 47.0923 244.179 45.3452C244.179 43.8679 243.795 42.6321 243.028 41.6378C242.261 40.6293 241.189 39.7841 239.811 39.1023C238.447 38.4205 236.864 37.8168 235.06 37.2912L229.839 35.7571C226.416 34.7344 223.76 33.321 221.871 31.517C219.982 29.7131 219.037 27.4119 219.037 24.6136C219.037 22.2699 219.662 20.2102 220.912 18.4347C222.176 16.6449 223.881 15.2528 226.026 14.2585C228.185 13.25 230.607 12.7457 233.291 12.7457C236.004 12.7457 238.405 13.2429 240.493 14.2372C242.581 15.2315 244.236 16.6023 245.457 18.3494C246.693 20.0824 247.354 22.0568 247.439 24.2727H243.582ZM254.982 16.9432V13.3636H286.622V16.9432H272.794V57H268.81V16.9432H254.982ZM299.577 13.3636V57H295.592V13.3636H299.577ZM345.163 13.3636V57H341.285L315.504 20.4588H315.163V57H311.178V13.3636H315.035L340.901 49.9474H341.242V13.3636H345.163ZM386.956 27C386.558 25.5511 385.976 24.1946 385.209 22.9304C384.442 21.652 383.49 20.5369 382.354 19.5852C381.232 18.6193 379.932 17.8665 378.455 17.3267C376.991 16.7869 375.358 16.517 373.554 16.517C370.713 16.517 368.17 17.2557 365.926 18.733C363.682 20.2102 361.906 22.3409 360.599 25.125C359.307 27.9091 358.661 31.2614 358.661 35.1818C358.661 39.0881 359.314 42.4332 360.621 45.2173C361.928 48.0014 363.717 50.1392 365.99 51.6307C368.277 53.108 370.891 53.8466 373.831 53.8466C376.516 53.8466 378.888 53.25 380.947 52.0568C383.007 50.8636 384.612 49.1591 385.763 46.9432C386.928 44.7273 387.496 42.0923 387.467 39.0384L388.746 39.4432H374.768V35.8636H391.345V39.4432C391.345 43.1648 390.592 46.3821 389.087 49.0952C387.581 51.8082 385.514 53.9034 382.886 55.3807C380.259 56.858 377.24 57.5966 373.831 57.5966C370.024 57.5966 366.693 56.6804 363.838 54.848C360.983 53.0014 358.76 50.402 357.169 47.0497C355.592 43.6832 354.804 39.7273 354.804 35.1818C354.804 31.7585 355.259 28.669 356.168 25.9134C357.077 23.1577 358.362 20.7997 360.024 18.8395C361.7 16.8793 363.682 15.3807 365.969 14.3438C368.256 13.2926 370.784 12.767 373.554 12.767C375.94 12.767 378.121 13.1435 380.095 13.8963C382.084 14.6491 383.831 15.6861 385.337 17.0071C386.857 18.3139 388.099 19.8267 389.065 21.5455C390.045 23.25 390.706 25.0682 391.047 27H386.956Z" fill="#374151"/>
<path d="M184.051 78.7273H172.034C171.949 77.733 171.722 76.831 171.352 76.0213C170.997 75.2116 170.5 74.5156 169.861 73.9332C169.236 73.3366 168.476 72.8821 167.581 72.5696C166.686 72.2429 165.67 72.0795 164.534 72.0795C162.545 72.0795 160.862 72.5625 159.484 73.5284C158.121 74.4943 157.084 75.8793 156.374 77.6832C155.678 79.4872 155.33 81.6534 155.33 84.1818C155.33 86.8523 155.685 89.0895 156.395 90.8935C157.119 92.6832 158.163 94.0327 159.527 94.9418C160.891 95.8366 162.531 96.2841 164.449 96.2841C165.543 96.2841 166.523 96.1491 167.389 95.8793C168.256 95.5952 169.009 95.1903 169.648 94.6648C170.287 94.1392 170.805 93.5071 171.203 92.7685C171.615 92.0156 171.892 91.1705 172.034 90.233L184.051 90.3182C183.909 92.1648 183.391 94.0469 182.496 95.9645C181.601 97.8679 180.33 99.6293 178.682 101.249C177.048 102.854 175.024 104.146 172.609 105.126C170.195 106.107 167.389 106.597 164.193 106.597C160.188 106.597 156.594 105.737 153.412 104.018C150.244 102.3 147.737 99.7713 145.891 96.4332C144.058 93.0952 143.142 89.0114 143.142 84.1818C143.142 79.3239 144.08 75.233 145.955 71.9091C147.83 68.571 150.358 66.0497 153.54 64.3452C156.722 62.6264 160.273 61.767 164.193 61.767C166.949 61.767 169.484 62.1435 171.8 62.8963C174.115 63.6491 176.146 64.75 177.893 66.1989C179.641 67.6335 181.047 69.402 182.112 71.5043C183.178 73.6065 183.824 76.0142 184.051 78.7273ZM199.413 106H186.629L201.033 62.3636H217.226L231.629 106H218.845L209.3 74.3807H208.959L199.413 106ZM197.027 88.7841H221.061V97.6477H197.027V88.7841ZM235.832 62.3636H250.576L260.718 87.0795H261.23L271.372 62.3636H286.116V106H274.525V80.7727H274.184L264.468 105.659H257.48L247.764 80.6023H247.423V106H235.832V62.3636ZM291.73 106V62.3636H310.566C313.804 62.3636 316.638 63.0028 319.067 64.2812C321.496 65.5597 323.385 67.3565 324.735 69.6719C326.084 71.9872 326.759 74.6932 326.759 77.7898C326.759 80.9148 326.063 83.6207 324.671 85.9077C323.293 88.1946 321.354 89.956 318.854 91.1918C316.368 92.4276 313.463 93.0455 310.14 93.0455H298.89V83.8409H307.753C309.145 83.8409 310.331 83.5994 311.311 83.1165C312.306 82.6193 313.066 81.9162 313.591 81.0071C314.131 80.098 314.401 79.0256 314.401 77.7898C314.401 76.5398 314.131 75.4744 313.591 74.5938C313.066 73.6989 312.306 73.017 311.311 72.5483C310.331 72.0653 309.145 71.8239 307.753 71.8239H303.577V106H291.73ZM336.991 106H324.207L338.611 62.3636H354.804L369.207 106H356.423L346.878 74.3807H346.537L336.991 106ZM334.605 88.7841H358.639V97.6477H334.605V88.7841ZM385.257 62.3636V106H373.41V62.3636H385.257ZM419.209 76.767C419.025 76.0142 418.733 75.3537 418.336 74.7855C417.938 74.2031 417.441 73.7131 416.844 73.3153C416.262 72.9034 415.58 72.598 414.799 72.3991C414.032 72.1861 413.186 72.0795 412.263 72.0795C410.275 72.0795 408.577 72.5554 407.171 73.5071C405.779 74.4588 404.713 75.8295 403.975 77.6193C403.25 79.4091 402.888 81.5682 402.888 84.0966C402.888 86.6534 403.236 88.8409 403.932 90.6591C404.628 92.4773 405.665 93.8693 407.043 94.8352C408.421 95.8011 410.132 96.2841 412.178 96.2841C413.982 96.2841 415.48 96.0213 416.674 95.4957C417.881 94.9702 418.783 94.2244 419.38 93.2585C419.976 92.2926 420.275 91.1562 420.275 89.8494L422.32 90.0625H412.348V81.625H431.695V87.6761C431.695 91.6534 430.85 95.0554 429.159 97.8821C427.483 100.695 425.168 102.854 422.213 104.359C419.273 105.851 415.9 106.597 412.093 106.597C407.846 106.597 404.117 105.695 400.907 103.891C397.696 102.087 395.189 99.5156 393.385 96.1776C391.596 92.8395 390.701 88.8693 390.701 84.267C390.701 80.6591 391.248 77.4631 392.341 74.679C393.449 71.8949 394.983 69.544 396.944 67.6264C398.904 65.6946 401.169 64.2386 403.74 63.2585C406.311 62.2642 409.067 61.767 412.007 61.767C414.593 61.767 416.993 62.1364 419.209 62.875C421.439 63.5994 423.407 64.6364 425.111 65.9858C426.83 67.321 428.215 68.9048 429.266 70.7372C430.317 72.5696 430.956 74.5795 431.184 76.767H419.209ZM474.974 62.3636V106H465.088L449.321 83.0739H449.065V106H437.219V62.3636H447.276L462.787 85.2045H463.128V62.3636H474.974ZM504.101 76C503.987 74.5795 503.455 73.4716 502.503 72.6761C501.565 71.8807 500.138 71.483 498.22 71.483C496.999 71.483 495.997 71.6321 495.216 71.9304C494.449 72.2145 493.881 72.6051 493.511 73.1023C493.142 73.5994 492.95 74.1676 492.936 74.8068C492.908 75.3324 493 75.8082 493.213 76.2344C493.44 76.6463 493.795 77.0227 494.278 77.3636C494.761 77.6903 495.379 77.9886 496.132 78.2585C496.885 78.5284 497.78 78.7699 498.817 78.983L502.396 79.75C504.811 80.2614 506.878 80.9361 508.597 81.7741C510.315 82.6122 511.722 83.5994 512.815 84.7358C513.909 85.858 514.712 87.1222 515.223 88.5284C515.749 89.9347 516.018 91.4687 516.033 93.1307C516.018 96 515.301 98.429 513.881 100.418C512.46 102.406 510.429 103.919 507.787 104.956C505.159 105.993 501.999 106.511 498.305 106.511C494.513 106.511 491.203 105.95 488.376 104.828C485.564 103.706 483.376 101.98 481.814 99.6506C480.266 97.3068 479.484 94.3097 479.47 90.6591H490.72C490.791 91.9943 491.125 93.1165 491.722 94.0256C492.318 94.9347 493.156 95.6236 494.236 96.0923C495.33 96.5611 496.629 96.7955 498.135 96.7955C499.399 96.7955 500.457 96.6392 501.31 96.3267C502.162 96.0142 502.808 95.581 503.249 95.027C503.689 94.473 503.916 93.8409 503.93 93.1307C503.916 92.4631 503.696 91.8807 503.27 91.3835C502.858 90.8722 502.176 90.4176 501.224 90.0199C500.273 89.608 498.987 89.2244 497.368 88.8693L493.021 87.9318C489.158 87.0937 486.111 85.6946 483.881 83.7344C481.665 81.7599 480.564 79.0682 480.578 75.6591C480.564 72.8892 481.303 70.4673 482.794 68.3935C484.3 66.3054 486.381 64.679 489.037 63.5142C491.707 62.3494 494.768 61.767 498.22 61.767C501.743 61.767 504.79 62.3565 507.361 63.5355C509.932 64.7145 511.913 66.3764 513.305 68.5213C514.712 70.652 515.422 73.1449 515.436 76H504.101Z" fill="#4C6FBF"/>
</svg>
