<svg width="157" height="37" viewBox="0 0 157 37" fill="none" xmlns="http://www.w3.org/2000/svg">
<path d="M0 19.4319C0 8.69997 8.69997 0 19.4319 0H34.8849C35.5493 0 36.0879 0.53857 36.0879 1.20293V34.8849C36.0879 35.5493 35.5493 36.0879 34.8849 36.0879H16.6559C7.45711 36.0879 0 28.6308 0 19.4319Z" fill="white"/>
<path d="M16.9036 29.9479C16.8042 29.966 16.7023 29.966 16.6029 29.9479C16.3859 29.8824 16.1962 29.7478 16.0628 29.5646C15.9293 29.3814 15.8594 29.1596 15.8636 28.933V28.7951L16.9913 20.8382H11.5531C11.3697 20.8384 11.1898 20.7883 11.0329 20.6932C10.876 20.5982 10.7483 20.462 10.6634 20.2994C10.5676 20.136 10.5171 19.95 10.5171 19.7606C10.5171 19.5712 10.5676 19.3852 10.6634 19.2218L13.1695 14.8487L18.307 6.67876C18.4212 6.48599 18.5974 6.33765 18.8068 6.25799C19.0162 6.17833 19.2464 6.17205 19.4599 6.24019C19.6768 6.3057 19.8665 6.4403 20 6.62352C20.1334 6.80673 20.2034 7.02853 20.1992 7.25516V7.393L19.0714 15.3499H24.5222C24.7056 15.3497 24.8855 15.3999 25.0424 15.4949C25.1992 15.5899 25.327 15.7261 25.4118 15.8887C25.5077 16.0521 25.5582 16.2381 25.5582 16.4275C25.5582 16.6169 25.5077 16.8029 25.4118 16.9663L22.9057 21.3395L17.7682 29.5094C17.6738 29.6505 17.5447 29.7649 17.3933 29.8417C17.2419 29.9185 17.0733 29.9551 16.9036 29.9479ZM12.944 18.9085H17.9562C18.0944 18.9102 18.231 18.939 18.358 18.9934C18.4851 19.0479 18.6002 19.1268 18.6968 19.2257C18.7934 19.3246 18.8695 19.4415 18.9209 19.5699C18.9723 19.6982 18.9979 19.8354 18.9962 19.9736V20.1115L18.2569 25.2991L21.3896 20.2869L23.1939 17.1793H18.1817C18.0435 17.1777 17.907 17.1488 17.7799 17.0944C17.6528 17.04 17.5377 16.9611 17.4411 16.8622C17.3445 16.7633 17.2684 16.6463 17.217 16.518C17.1656 16.3897 17.1401 16.2525 17.1417 16.1142V15.9764L17.881 10.7888L14.7484 15.801L12.944 18.9085Z" fill="#4C6FBF"/>
<path d="M43.0509 4.99757V3.92108H52.5662V4.99757H48.4077V17.0439H47.2094V4.99757H43.0509ZM55.2638 17.0439V3.92108H62.8761V4.99757H56.4621V9.93786H62.4725V11.0143H56.4621V15.9675H63.0043V17.0439H55.2638ZM73.1027 7.2018C73.0301 6.47133 72.7076 5.89036 72.1352 5.45892C71.5628 5.02747 70.843 4.81174 69.9758 4.81174C69.3649 4.81174 68.8267 4.9164 68.3611 5.12572C67.8997 5.33504 67.5366 5.62552 67.2718 5.99716C67.0112 6.36453 66.8809 6.78316 66.8809 7.25306C66.8809 7.59907 66.9557 7.90237 67.1052 8.16294C67.2547 8.42352 67.4555 8.64779 67.7075 8.83575C67.9638 9.01943 68.2457 9.17749 68.5533 9.30991C68.8652 9.44234 69.1791 9.5534 69.4952 9.64311L70.8793 10.0404C71.2979 10.1557 71.7166 10.3031 72.1352 10.4825C72.5538 10.6619 72.9361 10.8883 73.2822 11.1617C73.6324 11.4308 73.9122 11.7619 74.1216 12.1549C74.3351 12.5436 74.4419 13.0114 74.4419 13.5582C74.4419 14.2588 74.2604 14.8888 73.8973 15.4484C73.5342 16.008 73.013 16.4523 72.3338 16.7812C71.6546 17.1059 70.8408 17.2682 69.8925 17.2682C68.9997 17.2682 68.2244 17.1208 67.5665 16.8261C66.9087 16.5271 66.3918 16.1148 66.0159 15.5894C65.64 15.064 65.4285 14.4553 65.3815 13.7632H66.6118C66.6545 14.2801 66.8254 14.718 67.1244 15.0768C67.4234 15.4356 67.8122 15.709 68.2906 15.897C68.769 16.0807 69.303 16.1725 69.8925 16.1725C70.5461 16.1725 71.1271 16.0636 71.6354 15.8457C72.148 15.6236 72.5495 15.316 72.84 14.923C73.1348 14.5257 73.2822 14.0644 73.2822 13.539C73.2822 13.0947 73.1668 12.7231 72.9361 12.424C72.7055 12.1207 72.3829 11.8666 71.9686 11.6615C71.5585 11.4565 71.0822 11.2749 70.5397 11.1169L68.9698 10.6555C67.9403 10.348 67.1415 9.92291 66.5733 9.3804C66.0052 8.83788 65.7211 8.14586 65.7211 7.30432C65.7211 6.59948 65.9091 5.98007 66.285 5.4461C66.6652 4.90786 67.1778 4.48923 67.8228 4.1902C68.4721 3.88691 69.2005 3.73526 70.0078 3.73526C70.8238 3.73526 71.5457 3.88477 72.1736 4.1838C72.8016 4.48282 73.2992 4.89504 73.6666 5.42047C74.0383 5.94163 74.2369 6.5354 74.2625 7.2018H73.1027ZM76.5308 4.99757V3.92108H86.0462V4.99757H81.8876V17.0439H80.6894V4.99757H76.5308ZM89.942 3.92108V17.0439H88.7438V3.92108H89.942ZM103.651 3.92108V17.0439H102.485L94.7318 6.05483H94.6292V17.0439H93.431V3.92108H94.5908L102.37 14.923H102.472V3.92108H103.651ZM116.22 8.02198C116.1 7.58626 115.925 7.1783 115.694 6.79811C115.464 6.41366 115.177 6.07832 114.836 5.79211C114.498 5.50163 114.107 5.27523 113.663 5.1129C113.223 4.95058 112.732 4.86941 112.189 4.86941C111.335 4.86941 110.57 5.09154 109.895 5.53581C109.221 5.98007 108.687 6.62084 108.294 7.4581C107.905 8.29537 107.71 9.30351 107.71 10.4825C107.71 11.6572 107.907 12.6632 108.3 13.5005C108.693 14.3378 109.231 14.9807 109.915 15.4292C110.602 15.8735 111.388 16.0956 112.273 16.0956C113.08 16.0956 113.793 15.9162 114.413 15.5574C115.032 15.1985 115.515 14.6859 115.861 14.0195C116.211 13.3531 116.382 12.5607 116.374 11.6423L116.758 11.764H112.555V10.6876H117.54V11.764C117.54 12.8832 117.313 13.8508 116.861 14.6667C116.408 15.4826 115.786 16.1127 114.996 16.557C114.206 17.0012 113.298 17.2234 112.273 17.2234C111.128 17.2234 110.126 16.9478 109.268 16.3968C108.409 15.8414 107.74 15.0597 107.262 14.0516C106.788 13.0392 106.551 11.8495 106.551 10.4825C106.551 9.45302 106.687 8.52391 106.961 7.69519C107.234 6.86646 107.621 6.15735 108.121 5.56785C108.625 4.97834 109.221 4.52767 109.908 4.21583C110.596 3.89972 111.356 3.74167 112.189 3.74167C112.907 3.74167 113.563 3.85487 114.157 4.08127C114.755 4.30768 115.28 4.61951 115.733 5.01679C116.19 5.40979 116.564 5.86473 116.854 6.38162C117.149 6.89423 117.348 7.44102 117.45 8.02198H116.22ZM55.1998 23.8422H51.5859C51.5602 23.5431 51.4919 23.2719 51.3808 23.0284C51.274 22.7849 51.1245 22.5756 50.9323 22.4004C50.7443 22.221 50.5158 22.0843 50.2467 21.9903C49.9775 21.8921 49.6721 21.843 49.3304 21.843C48.7323 21.843 48.2261 21.9882 47.8118 22.2787C47.4017 22.5692 47.0898 22.9857 46.8762 23.5282C46.6669 24.0707 46.5623 24.7221 46.5623 25.4825C46.5623 26.2856 46.6691 26.9584 46.8826 27.5009C47.1005 28.0392 47.4145 28.445 47.8246 28.7184C48.2347 28.9875 48.728 29.1221 49.3047 29.1221C49.6337 29.1221 49.9284 29.0815 50.189 29.0003C50.4496 28.9149 50.676 28.7931 50.8682 28.6351C51.0604 28.477 51.2164 28.2869 51.336 28.0648C51.4598 27.8384 51.5431 27.5842 51.5859 27.3023L55.1998 27.3279C55.1571 27.8832 55.0011 28.4493 54.732 29.0259C54.4629 29.5984 54.0806 30.1281 53.585 30.615C53.0938 31.0977 52.4851 31.4865 51.7589 31.7812C51.0327 32.076 50.189 32.2234 49.2278 32.2234C48.0232 32.2234 46.9424 31.9649 45.9856 31.448C45.033 30.9312 44.279 30.1708 43.7237 29.1669C43.1726 28.163 42.8971 26.9349 42.8971 25.4825C42.8971 24.0216 43.179 22.7913 43.7429 21.7917C44.3068 20.7878 45.0671 20.0296 46.024 19.517C46.9809 19.0001 48.0488 18.7417 49.2278 18.7417C50.0566 18.7417 50.8191 18.8549 51.5154 19.0813C52.2117 19.3077 52.8225 19.6387 53.348 20.0745C53.8734 20.5059 54.2963 21.0377 54.6167 21.67C54.9371 22.3022 55.1314 23.0262 55.1998 23.8422ZM59.8197 32.0439H55.9751L60.3067 18.9211H65.1765L69.5081 32.0439H65.6635L62.7928 22.535H62.6903L59.8197 32.0439ZM59.102 26.8666H66.3299V29.5321H59.102V26.8666ZM70.772 18.9211H75.2061L78.2561 26.354H78.4099L81.4599 18.9211H85.894V32.0439H82.4083V24.4573H82.3057L79.3838 31.9414H77.2821L74.3602 24.406H74.2577V32.0439H70.772V18.9211ZM87.5824 32.0439V18.9211H93.2468C94.2207 18.9211 95.073 19.1133 95.8034 19.4978C96.5339 19.8822 97.1021 20.4226 97.5079 21.1189C97.9137 21.8152 98.1166 22.629 98.1166 23.5602C98.1166 24.5 97.9073 25.3138 97.4886 26.0015C97.0743 26.6893 96.4912 27.219 95.7394 27.5906C94.9918 27.9623 94.1182 28.1481 93.1186 28.1481H89.7354V25.38H92.401C92.8196 25.38 93.1763 25.3074 93.4711 25.1621C93.7701 25.0126 93.9986 24.8012 94.1567 24.5278C94.319 24.2544 94.4002 23.9319 94.4002 23.5602C94.4002 23.1843 94.319 22.8639 94.1567 22.5991C93.9986 22.33 93.7701 22.1249 93.4711 21.9839C93.1763 21.8387 92.8196 21.7661 92.401 21.7661H91.1451V32.0439H87.5824ZM101.194 32.0439H97.3493L101.681 18.9211H106.551L110.882 32.0439H107.038L104.167 22.535H104.064L101.194 32.0439ZM100.476 26.8666H107.704V29.5321H100.476V26.8666ZM115.709 18.9211V32.0439H112.146V18.9211H115.709ZM125.919 23.2527C125.864 23.0262 125.776 22.8276 125.657 22.6567C125.537 22.4816 125.388 22.3342 125.208 22.2146C125.033 22.0907 124.828 21.9989 124.593 21.9391C124.362 21.875 124.108 21.843 123.83 21.843C123.232 21.843 122.722 21.9861 122.299 22.2723C121.88 22.5585 121.56 22.9707 121.338 23.509C121.12 24.0472 121.011 24.6965 121.011 25.4569C121.011 26.2258 121.116 26.8837 121.325 27.4304C121.534 27.9772 121.846 28.3959 122.261 28.6863C122.675 28.9768 123.19 29.1221 123.805 29.1221C124.347 29.1221 124.798 29.043 125.157 28.885C125.52 28.7269 125.791 28.5027 125.971 28.2122C126.15 27.9217 126.24 27.58 126.24 27.1869L126.855 27.251H123.856V24.7136H129.674V26.5334C129.674 27.7295 129.42 28.7525 128.912 29.6026C128.408 30.4484 127.711 31.0977 126.823 31.5506C125.939 31.9991 124.924 32.2234 123.779 32.2234C122.502 32.2234 121.381 31.9521 120.415 31.4096C119.45 30.8671 118.696 30.0939 118.153 29.09C117.615 28.0862 117.346 26.8922 117.346 25.5081C117.346 24.4231 117.51 23.462 117.839 22.6247C118.173 21.7874 118.634 21.0805 119.223 20.5038C119.813 19.9228 120.494 19.485 121.267 19.1902C122.041 18.8912 122.869 18.7417 123.754 18.7417C124.531 18.7417 125.253 18.8527 125.919 19.0749C126.59 19.2927 127.182 19.6046 127.694 20.0104C128.211 20.4119 128.628 20.8882 128.944 21.4393C129.26 21.9903 129.452 22.5948 129.52 23.2527H125.919ZM142.69 18.9211V32.0439H139.717L134.975 25.1493H134.898V32.0439H131.335V18.9211H134.36L139.025 25.7901H139.127V18.9211H142.69ZM151.449 23.022C151.415 22.5948 151.255 22.2616 150.968 22.0224C150.687 21.7832 150.257 21.6636 149.681 21.6636C149.313 21.6636 149.012 21.7084 148.777 21.7981C148.546 21.8836 148.376 22.001 148.264 22.1505C148.153 22.3 148.096 22.4709 148.091 22.6631C148.083 22.8212 148.111 22.9643 148.175 23.0925C148.243 23.2163 148.35 23.3295 148.495 23.4321C148.64 23.5303 148.826 23.62 149.053 23.7012C149.279 23.7824 149.548 23.855 149.86 23.919L150.936 24.1497C151.663 24.3035 152.284 24.5064 152.801 24.7584C153.318 25.0105 153.741 25.3074 154.07 25.6491C154.399 25.9866 154.64 26.3668 154.794 26.7897C154.952 27.2126 155.033 27.6739 155.037 28.1737C155.033 29.0366 154.817 29.7671 154.39 30.3651C153.963 30.9632 153.352 31.4181 152.558 31.73C151.767 32.0418 150.817 32.1977 149.706 32.1977C148.566 32.1977 147.57 32.029 146.72 31.6915C145.874 31.3541 145.217 30.835 144.747 30.1345C144.281 29.4296 144.046 28.5283 144.042 27.4304H147.425C147.446 27.832 147.547 28.1695 147.726 28.4428C147.906 28.7162 148.158 28.9234 148.482 29.0644C148.811 29.2054 149.202 29.2758 149.655 29.2758C150.035 29.2758 150.353 29.2289 150.61 29.1349C150.866 29.0409 151.06 28.9106 151.193 28.744C151.325 28.5774 151.394 28.3873 151.398 28.1737C151.394 27.973 151.327 27.7978 151.199 27.6483C151.075 27.4945 150.87 27.3578 150.584 27.2382C150.298 27.1143 149.911 26.999 149.424 26.8922L148.117 26.6103C146.955 26.3582 146.039 25.9375 145.368 25.348C144.702 24.7542 144.371 23.9447 144.375 22.9195C144.371 22.0865 144.593 21.3581 145.041 20.7344C145.494 20.1065 146.12 19.6174 146.919 19.2671C147.722 18.9168 148.643 18.7417 149.681 18.7417C150.74 18.7417 151.656 18.9189 152.429 19.2735C153.203 19.6281 153.799 20.1279 154.217 20.7729C154.64 21.4137 154.854 22.1634 154.858 23.022H151.449Z" fill="white"/>
</svg>
