<svg width="52" height="52" viewBox="0 0 52 52" fill="none" xmlns="http://www.w3.org/2000/svg">
<g clip-path="url(#clip0_312_90)">
<path d="M0 0H52V52H0V0Z" fill="#B9D3F3"/>
<path d="M48 52C48 42.114 46.152 35.234 45.947 34.94C45.82 34.7754 45.6581 34.6409 45.4729 34.5463C45.2877 34.4517 45.0838 34.3994 44.876 34.393L34.321 30.181L31.849 28.726C31.817 28.195 31.801 27.645 31.808 27.101C32.2488 26.6273 32.6235 26.0961 32.922 25.522C33.4171 24.4653 33.7746 23.3496 33.986 22.202C34.3022 22.1216 34.5927 21.9619 34.83 21.738C35.454 21.203 35.721 18.086 35.899 16.928C35.999 16.27 35.756 15.958 35.346 15.909C35.658 14.173 35.934 11.359 34.995 9.33701C33.544 6.21201 31.2 5.10001 29.749 5.87701L29.731 5.88801C29.1918 5.54778 28.5911 5.31643 27.963 5.20701C25.173 4.53701 23.052 4.53701 20.374 6.65801C19.3629 7.33289 18.5574 8.27333 18.0458 9.37607C17.5342 10.4788 17.3363 11.7012 17.474 12.909C17.522 14.209 17.612 15.201 17.699 15.909C17.246 15.929 16.965 16.236 17.072 16.932C17.25 18.09 17.517 21.207 18.141 21.742C18.3854 21.9756 18.6884 22.1388 19.018 22.214C19.1887 23.2101 19.4618 24.186 19.833 25.126C20.1058 25.7209 20.45 26.2803 20.858 26.792C20.874 27.452 20.872 28.131 20.848 28.798L18.49 30.185L7.933 34.672C7.72506 34.6784 7.52113 34.7309 7.33593 34.8257C7.15072 34.9204 6.98886 35.0551 6.862 35.22C5.06031 40.6353 4.09521 46.2937 4 52H48ZM25.041 41.17V51.239C23.9166 48.4934 22.9572 45.6831 22.168 42.823C21.644 40.905 21.13 39.207 20.715 37.523L19.841 38.023L19.141 30.342L20.851 29.272L25.47 34.077L20.921 37.359L24.777 34.953L24.75 34.98C24.75 34.98 25.544 35.244 25.74 37.005C25.0403 37.8496 25.0408 40.3871 25.041 41.1381C25.041 41.1491 25.041 41.1598 25.041 41.17ZM29.841 8.63201C29.857 8.65401 29.872 8.67701 29.888 8.70001C29.86 8.69201 29.834 8.68301 29.807 8.67601L29.841 8.63201ZM33.459 38.032L32.659 37.513C32.308 39.049 31.799 40.698 31.293 42.547C30.4513 45.602 29.437 48.6069 28.255 51.547V41.17C28.255 41.1589 28.255 41.1474 28.255 41.1354C28.2552 40.3822 28.2558 37.8565 27.555 37.011C27.729 35.502 28.435 35.058 28.637 34.962L32.689 37.5L27.629 33.93L32.037 29.273L33.806 30.273L33.459 38.032Z" fill="#6E97C8"/>
<path d="M33.459 38.032L32.659 37.513C32.308 39.049 31.799 40.698 31.293 42.547C30.4513 45.602 29.437 48.6069 28.255 51.547V41.17L28.255 41.1354C28.2552 40.3822 28.2558 37.8565 27.555 37.011C27.729 35.502 28.435 35.058 28.637 34.962L32.689 37.5L27.629 33.93L32.037 29.273L33.806 30.273L33.459 38.032Z" fill="#6E97C8"/>
<path d="M25.041 41.17V51.239C23.9166 48.4934 22.9572 45.6831 22.168 42.823C21.644 40.905 21.13 39.207 20.715 37.523L19.841 38.023L19.141 30.342L20.851 29.272L25.47 34.077L20.921 37.359L24.777 34.953L24.75 34.98C24.75 34.98 25.544 35.244 25.74 37.005C25.0403 37.8496 25.0408 40.3871 25.041 41.1381L25.041 41.17Z" fill="#6E97C8"/>
<path d="M21.1921 33.6902V25.4182H31.4752V33.6902C28.8831 37.1037 23.6566 36.9762 21.1921 33.6902Z" fill="#B9D3F3"/>
<path d="M18.9818 18.6646C18.9818 13.5762 22.3015 9.44883 26.4032 9.42747C30.5049 9.44883 33.8246 13.5762 33.8246 18.6646C33.8246 20.605 34.0673 23.7217 33.0745 25.6469C31.501 27.7211 29.2975 29.4463 27.3049 30.3198H25.5014C23.5088 29.4463 21.3054 27.7211 19.7319 25.6469C18.7391 23.7217 18.9818 20.605 18.9818 18.6646Z" fill="#6E97C8"/>
<path d="M18.9818 17.3104C18.9818 16.8482 19.0092 16.3938 19.062 15.9498C19.2631 14.2624 20.6652 14.4708 20.6652 11.4627C22.0258 9.40318 20.8181 10.7879 22.9982 9.19543C23.7243 9.19921 26.4106 11.4135 29.5765 9.19543C30.9604 9.8779 31.2077 10.0497 32.1412 11.4627C32.1412 14.8733 33.5433 14.2624 33.7443 15.9498C33.7972 16.3938 33.8246 16.8482 33.8246 17.3104C33.8246 19.2509 34.4714 21.2193 32.8348 25.2843C31.2613 27.3585 29.2975 28.0922 27.3049 28.9656H25.5014C23.5088 28.0922 21.5661 27.6056 19.9926 25.5314C18.9997 23.6062 18.9818 19.2509 18.9818 17.3104Z" fill="#B9D3F3"/>
<path d="M17.4633 16.8754C17.6277 16.2848 18.0934 16.8292 18.3758 17.394L18.7641 21.3125C18.2164 21.2298 18.2467 21.3643 18.0911 20.9023C17.845 20.1711 17.2212 17.7453 17.4633 16.8754Z" fill="#B9D3F3"/>
<path d="M35.4424 16.9895C35.278 16.399 34.8124 16.9434 34.53 17.5081L34.1417 21.4266C34.6893 21.344 34.6591 21.4784 34.8146 21.0165C35.0608 20.2852 35.6846 17.8595 35.4424 16.9895Z" fill="#B9D3F3"/>
</g>
<defs>
<clipPath id="clip0_312_90">
<rect width="52" height="52" fill="white"/>
</clipPath>
</defs>
</svg>
